<?xml version="1.0" encoding="utf-8"?>
<!-- Generator: Adobe Illustrator 24.3.0, SVG Export Plug-In . SVG Version: 6.00 Build 0)  -->
<svg version="1.1" id="Layer_1" xmlns="http://www.w3.org/2000/svg" xmlns:xlink="http://www.w3.org/1999/xlink" x="0px" y="0px"
	 viewBox="0 0 1280 757" style="enable-background:new 0 0 1280 757;" xml:space="preserve">

<g transform="translate(0.000000,757.000000) scale(0.100000,-0.100000)">
	<path d="M5550,7504c0-6,167-187,397-430c73-78,133-145,133-149s-107-120-237-257c-131-138-263-278-294-312l-57-61l207-3l206-2
		l35,37c62,67,192,206,274,292l80,84l78-84c43-46,126-137,186-201c59-64,116-120,127-123s107-4,214-3l194,3l-109,115
		c-59,63-178,189-264,280s-171,181-188,201l-31,35l106,115c58,63,174,186,257,273s157,167,164,178c13,17,6,18-187,18h-200l-94-97
		c-51-54-130-136-174-183l-81-84l-114,119c-62,66-140,148-172,183l-59,62h-199C5639,7510,5550,7507,5550,7504z"/>
	<path d="M5258,7424c-67-34-68-35-68-75c0-37,7-48,87-132c197-207,234-247,327-346l97-105l-63-65c-35-36-65-68-68-71s-45-46-93-96
		c-78-80-87-94-82-117c4-15,10-27,15-27c12,0,78,68,72,74c-3,3,0,6,6,6c15,0,91,81,92,97c0,7,3,12,8,11c10-4,262,262,262,276
		c0,4-15,22-32,39c-31,31-61,63-262,277c-44,47-109,117-145,155c-81,85-103,113-81,100c12-7,13-6,3,7c-7,8-10,18-6,21
		C5338,7465,5327,7460,5258,7424z"/>
	<path d="M6365,7430c-73-35-153-111-133-128c26-21,37-15,119,71c46,48,82,87,79,87C6427,7459,6398,7446,6365,7430z"/>
	<path d="M7496,7363c-9-48-36-196-61-328c-41-223-69-372-115-620c-10-55-21-112-25-127c-6-23-3-27,22-32c58-12,611-106,743-126
		c30-5,140-23,243-40c103-18,190-30,193-28c7,7,37,188,32,193c-2,2-100,20-218,40c-180,30-469,79-597,100c-41,7-40,6-7,183
		c14,75,32,171,39,212c8,41,33,174,56,295c55,296,56,302,33,308c-11,3-77,15-149,27c-71,12-140,24-151,26
		C7514,7451,7511,7445,7496,7363z"/>
	<path d="M4605,7360c-253-43-505-86-560-95c-194-33-205-36-205-52c0-15,57-329,164-898c52-276,53-280,77-279c26,1,1233,202,1260,210
		c15,4,15,12-1,99c-9,52-18,97-21,99c-2,3-38-2-79-9c-152-29-871-147-874-143c-5,6-56,286-56,307c0,12,6,21,13,21
		c22,1,829,138,833,142c5,6-26,182-34,190c-4,4-195-25-426-63c-230-39-422-67-426-62c-9,9-54,252-48,258c3,3,478,84,618,105
		c110,17,293,49,296,53c2,2-5,46-15,98c-15,79-21,94-37,96C5074,7437,4858,7403,4605,7360z"/>
	<path d="M7233,7366c-38-19-73-42-77-52c-5-11-16-62-26-114c-9-52-43-234-75-403l-58-309l53-53c49-50,79-63,66-30c-3,8-1,15,4,17
		c4,2,15,44,24,93c9,50,23,128,32,175c25,131,29,154,58,320c15,85,31,171,36,190c13,51,39,194,36,197C7305,7398,7272,7384,7233,7366
		z"/>
	<path d="M3546,7145c-32-18-63-40-68-49c-10-17-1-87,27-226c7-36,20-103,29-150c85-453,69-395,167-594c103-207,107-229,47-261
		c-45-24-47-32-11-41c41-11,1315,201,1375,228c43,19,66,21,280,22l233,1l60,32c33,18,67,37,75,42c10,7-51,10-198,10
		c-200-1-218-2-285-25c-40-14-84-25-99-26c-16-1-28-5-28-10s-4-7-8-4c-4,2-113-13-242-35s-263-44-298-49c-35-6-129-22-210-36
		c-317-55-449-75-487-72c-37,3-41,6-54,43c-7,22-15,51-16,65s-12,79-24,145s-26,143-31,170c-5,28-14,73-20,100c-12,53-65,343-80,435
		c-5,30-18,100-29,155c-19,92-28,138-30,158C3620,7184,3610,7180,3546,7145z"/>
	<path d="M9075,6943c-37-104-107-296-155-428c-152-415-190-522-190-528c0-12,321-110,329-101c4,5,27,63,50,129c24,66,78,217,121,335
		c209,575,240,660,240,669c0,8-299,111-321,111C9146,7130,9112,7046,9075,6943z"/>
	<path d="M4935,7094c-33-7-175-32-315-55s-267-44-282-47c-23-3-28-9-28-33c0-25,3-29,23-24c12,2,134,23,271,46c137,22,258,44,270,49
		c28,10,144,80,131,79C5000,7108,4968,7102,4935,7094z"/>
	<path d="M8875,7059c-33-17-67-38-76-47c-12-12-185-471-256-677c-1-5,11-18,28-28l32-18l-6-77l-5-77l32,85c18,47,52,137,76,200
		c23,63,54,149,70,190c15,41,46,129,69,195s48,135,56,153s15,39,15,47s5,15,12,15c6,0,8,3,5,7c-4,3-2,12,4,20c9,10,8,13-2,13
		c-11,0-11,2,1,10c8,5,12,11,10,14C8937,7086,8908,7075,8875,7059z"/>
	<path d="M2970,6935c-102-46-202-90-222-99c-47-18-47,4-8-371c17-159,35-336,41-393c6-56,9-108,7-114c-3-7-146,124-319,291
		s-319,305-326,308c-17,7-473-193-473-207c0-9,128-273,371-767l164-332l138,61c77,34,141,66,143,73c3,6-88,200-201,430
		s-204,419-203,421c2,1,167-160,366-357c200-198,367-359,371-357s72,32,149,67l142,64v36c0,20-6,88-14,151s-22,180-31,260
		c-8,80-22,201-31,270c-26,219-32,275-29,278c2,2,98-188,214-422c115-234,213-426,218-426c4,0,70,27,146,61c115,52,136,65,132,80
		c-3,10-124,257-268,548c-178,361-266,531-277,530C3162,7019,3072,6981,2970,6935z"/>
	<path d="M9920,6706c-46-83-161-288-255-456c-206-365-255-455-255-464c0-3,63-37,140-76l139-70l57,103c32,56,75,134,97,172
		c22,39,82,147,135,240c52,94,98,174,102,178c9,10,15-15,116-473c42-190,86-388,98-440l21-95l150-77c83-42,153-77,156-78
		c4,0,56,88,159,275c15,27,214,383,371,664c32,57,61,111,64,121c4,14-21,30-129,83c-75,37-139,67-143,67c-4-1-51-78-103-172
		c-52-95-115-208-141-252c-25-45-72-128-104-186l-59-105l-13,55c-7,30-26,116-42,190s-62,284-102,467l-74,332l-115,57
		c-63,32-131,65-150,74l-35,17L9920,6706z"/>
	<path d="M9731,6783l-73-38l-87-155c-165-293-499-885-517-916c-11-20-15-39-10-57c5-23,30-39,166-107c88-44,169-80,181-80
		s53,17,91,37c66,35,69,38,47,46c-93,37-313,153-325,172c-17,25-12,40,35,120c16,28,41,71,54,96c14,25,35,63,48,85
		c12,21,76,136,142,254s138,247,160,285c22,39,52,93,67,121s36,64,47,80c21,31,56,94,51,94C9806,6820,9772,6803,9731,6783z"/>
	<path d="M2428,6740c-44-23-79-48-83-59c-3-11-1-68,5-128l11-108l50-49c57-56,118-106,129-106s-1,54-14,62c-7,5-3,8,9,8s16,3,9,8
		c-13,9-38,218-38,329c-1,46-1,83-1,82C2505,6779,2470,6761,2428,6740z"/>
	<path d="M4958,6614c-3-3-23-7-44-10c-72-9-506-84-514-89c-4-2-5-15-3-27l4-23l247,41c219,36,254,45,305,74c31,17,57,34,57,36
		C5010,6622,4964,6621,4958,6614z"/>
	<path d="M6129,6434l-59-57l32-36c63-73,233-246,252-258c15-9,86-12,237-13h217l57,30c31,17,59,30,61,30s4-14,4-30
		c0-42,30-53,225-85c88-14,360-59,605-100c488-81,450-79,549-22l44,25l-39,11c-22,6-57,13-79,16c-47,6-496,79-610,99
		c-44,8-127,22-185,31c-289,47-356,64-347,89c3,7,1,19-3,26c-6,10-19,9-62-9c-49-20-72-22-263-22c-116-1-222-1-237,0
		c-18,1-39,15-65,43c-21,23-72,78-115,122c-42,45-89,96-106,115c-19,22-34,31-42,26c-10-6-12-4-7,8C6203,6500,6192,6493,6129,6434z"
		/>
	<path d="M10654,6308c-55-28-64-37-103-107l-43-76l12-65c11-64,29-113,30-80c0,17,45,107,114,228c26,46,45,90,42,98c-4,9,3,18,17,24
		c12,5,15,9,7,9S10688,6325,10654,6308z"/>
	<path d="M1412,6295c-84-39-112-62-111-93c0-15,103-231,227-481l227-455l95-23c52-13,100-21,106-19c11,4-50,131-356,748
		c-76,152-141,285-144,296c-4,12,0,26,9,36C1488,6326,1474,6324,1412,6295z"/>
	<path d="M8580,6119c0-5,5-7,10-4c6,3,10,8,10,11c0,2-4,4-10,4C8585,6130,8580,6125,8580,6119z"/>
	<path d="M8485,5978c-38-17-75-34-80-38c-6-5-19-34-29-65l-20-56l25-23c30-30,369-140,400-131c39,13,156,86,125,79c-22-5-27-4-21,6
		c5,8,4,11-3,6c-6-3-34,2-64,13c-29,10-100,33-158,51s-113,40-122,48c-23,20-23,59,1,105c10,20,18,37,17,36
		C8556,6009,8524,5995,8485,5978z"/>
	<path d="M9931,5928c-8-13-35-59-61-103l-46-80l21-100c76-353,108-492,118-503c6-8,87-52,181-99c191-96,194-96,286-38
		c41,26,49,35,33,35c-12,0-28,6-35,13c-7,6-56,32-108,57s-119,59-149,75l-55,30l-19,85c-10,47-22,101-27,120c-10,36-55,233-88,380
		c-11,47-23,94-27,105l-8,20l17-20c16-19,16-18,1,13c-8,17-17,32-18,32S9938,5940,9931,5928z"/>
	<path d="M3174,5785c20-138,20-144-14-175c-18-17-29-30-25-30c11,0,245,103,242,106c-1,2-23-4-47-12c-54-19-82-9-106,38
		c-9,18-20,35-24,38s-12,19-18,35l-12,30L3174,5785z"/>
	<path d="M11372,5348l-462-423l457-451c455-449,458-452,480-434c12,9,48,40,79,69l56,52l-337,332l-338,332l121,110
		c67,60,125,111,129,112c4,2,143-129,308-291l300-293l78,70l79,71l-302,294c-165,162-300,298-298,302c5,14,192,180,202,180
		c5,0,129-119,275-263c146-145,290-287,319-316l54-51l56,49c32,27,66,59,77,71l20,22l-225,221c-124,121-324,319-445,439l-220,218
		L11372,5348z"/>
	<path d="M3420,5710c-19-11-30-19-25-19c6,0,26,8,45,19s31,19,25,19C3460,5729,3439,5721,3420,5710z"/>
	<path d="M11558,5697c-59-28-114-73-268-217c-9-8-63-58-120-110c-58-52-134-121-170-155c-78-72-230-210-357-325
		c-119-107-121-118-35-199c55-52,239-232,683-669c167-164,211-202,233-202c15,0,57,14,92,32c63,32,64,32,41,47c-13,9-37,30-54,46
		c-16,17-204,201-418,410c-466,456-482,472-488,496c-3,12-1,17,5,13s9-1,6,7s11,27,31,42c20,16,90,79,156,141s145,135,175,161
		c30,27,64,58,76,69c17,18,78,74,246,226c15,14,60,55,100,91c40,37,89,81,108,98s33,30,30,30S11595,5715,11558,5697z"/>
	<path d="M497,5371c-120-118-128-129-118-151c6-14,46-128,90-255c117-340,353-1020,355-1022c0,0,59,54,130,121l130,123l-52,139
		c-29,76-52,144-52,151c0,10,462,475,478,481c4,1,77-18,162-43l155-45l129,129l129,129l-54,15c-30,9-178,48-329,87
		c-151,40-313,83-360,95c-84,23-344,91-555,145l-109,29L497,5371z M850,5135c157-45,364-106,367-109c6-5-318-321-325-317
		c-10,7-180,461-173,461C723,5170,782,5154,850,5135z"/>
	<path d="M884,4918c10-49,22-54,50-22c26,31,23,36-28,48C878,4951,877,4950,884,4918z"/>
	<path d="M2532,5473c34-66,39-87,28-114c-7-16-21-31-32-35c-11-3-17-8-14-12c5-5,206,76,206,83c0,2-11,2-25,1c-14,0-25-5-25-10
		s-10-1-22,10c-19,16-20,16-9,1c12-15,12-17,0-11c-8,3-30,25-49,49s-41,44-48,44C2534,5480,2530,5477,2532,5473z"/>
	<path d="M2820,5445c-14-8-20-14-14-15c5,0,19,7,30,15C2860,5463,2852,5464,2820,5445z"/>
	<path d="M348,5427c-68-31-338-290-338-324c0-22,102-321,299-883c32-91,80-228,106-305c27-77,55-148,63-157c23-27,70-21,139,16
		c61,32,62,33,38,44c-26,12-38,35-75,147c-12,39-26,79-31,90c-4,11-29,81-54,155c-26,74-50,144-55,155c-4,11-22,63-40,115
		c-26,76-106,306-133,380c-3,8-29,83-58,167c-31,85-58,149-64,146c-5-3,11,15,37,41c26,25,44,46,42,46c-3,0,14,17,38,38
		c57,50,153,152,142,151C399,5449,374,5439,348,5427z"/>
	<path d="M2750,5415c-14-8-20-14-15-14c6,0,21,6,35,14s21,14,15,14C2780,5429,2764,5423,2750,5415z"/>
	<path d="M2140,5145c-14-8-20-14-14-15c5,0,19,7,30,15C2180,5163,2172,5164,2140,5145z"/>
	<path d="M3127,4909c-4-51-7-170-7-266c0-95-3-173-7-173c-41,0-188-32-194-42c-5-7-9-65-9-129s-3-130-6-147c-7-34-13-35-224-63
		c-47-6-86-12-88-14s2-57,9-124l12-121l731,1h731l31,39c28,34,33,51,39,120c4,45,6,83,4,85c-2,1-141,8-308,14c-168,6-306,13-309,16
		c-2,2-9,76-15,163l-11,160l-98,22l-99,22l1,262l1,261l-89,3l-89,3L3127,4909z"/>
	<path d="M11433,4846l-27-24l268-263c148-145,271-265,275-266c3-2,24,9,46,23s32,23,22,20c-19-6-39,10-154,122c-35,34-61,62-57,62
		s-10,13-30,29s-52,46-70,66c-23,25-35,32-39,23c-3-8-6-6-6,6c-1,11-19,36-40,57c-22,20-37,40-34,43c4,3,1,6-5,6c-16,0-72,54-72,70
		c0,7-7,10-15,6c-9-3-15,0-15,10c0,9-5,12-12,8c-8-5-9-2-5,9C11472,4876,11466,4874,11433,4846z"/>
	<path d="M1352,4764c-29-26-51-48-49-50c2-3,44-16,93-29l88-24l74,37l73,37l-88,28c-48,15-92,25-98,23c-5-2-17,3-25,10
		C1406,4808,1397,4803,1352,4764z"/>
	<path d="M12391,4618c-1-21,7-22,29-7c13,9,13,10-2,6c-9-3-19-1-22,6C12394,4630,12391,4627,12391,4618z"/>
	<path d="M2610,3402v-239l443-6c243-4,525-7,628-7h185l23,73c12,39,47,147,77,240c30,92,54,170,54,172c0,3-317,5-705,5h-705V3402z"
		/>
	<path  d="M4617,3093c-4-3-7-69-7-145v-138h350h350v145v145h-343C4778,3100,4620,3097,4617,3093z"/>
	<path  d="M5460,2960v-140h350h350v140v140h-350h-350V2960z"/>
	<path  d="M6294,3087c-2-7-3-69-2-138l3-124l353-3l352-2v140v140h-350C6371,3100,6298,3097,6294,3087z"/>
	<path  d="M7130,2955v-145h355h355v145v145h-355h-355V2955z"/>
	<path class="st2" d="M2601,2891c-14-78-9-75-128-87l-73-7l-2-301l-3-301l-270-12c-148-6-282-12-296-12c-26-1-26-1-38-128
		c-21-239-13-387,35-603c56-249,134-450,193-497c29-23,216-91,321-117c141-34,328-63,540-84c222-21,1069-24,1375-4
		c504,33,1061,87,1500,146c404,55,530,74,905,137c1209,204,2512,253,3415,128c83-11,169-23,191-26l42-5l42,73c57,98,140,216,238,338
		c160,200,475,544,666,730c48,46,85,86,83,88s-67,10-143,18c-247,26-996,18-1374-15c-213-19-499-50-645-71c-330-47-822-142-1050-202
		l-50-13l-7-85c-4-46-11-178-14-293l-6-209l-637,6c-350,4-1159,7-1798,7H4450v305c0,246-3,305-13,305c-22,0-350,49-353,53
		c-6,6-34,493-34,583v81l-87,23c-71,18-96,30-128,60l-40,38l-545,11c-300,6-566,11-591,11h-46L2601,2891z"/>
	<path  d="M4627,2693c-4-3-7-66-7-140v-133h355h355v140v140h-348C4790,2700,4630,2697,4627,2693z"/>
	<path  d="M5460,2560v-140h350h350v140v140h-350h-350V2560z"/>
	<path  d="M6297,2693c-4-3-7-66-7-140v-133h355h355v140v140h-348C6460,2700,6300,2697,6297,2693z"/>
	<path  d="M7130,2560v-140h355h355v140v140h-355h-355V2560z"/>
	<path  d="M4627,2293c-4-3-7-66-7-138v-132l77-7c97-8,561-8,602,0l31,7v138v139h-348C4790,2300,4630,2297,4627,2293z"/>
	<path  d="M5460,2161c0-112,3-140,15-144c8-4,165-6,350-7h335v145v145h-350h-350V2161z"/>
	<path  d="M6297,2293c-4-3-7-64-7-134c0-117,2-129,19-139c21-11,606-15,660-4l31,7v138v139h-348
		C6460,2300,6300,2297,6297,2293z"/>
	<path  d="M7130,2156v-145h328c180,0,339,3,355,6l27,5v139v139h-355h-355V2156z"/>
	<path  d="M4627,1893c-4-3-7-66-7-139c0-130,1-134,23-139c12-3,171-4,352-3l330,3l3,143l3,142h-349
		C4790,1900,4630,1897,4627,1893z"/>
	<path  d="M5460,1755v-144l350-1h350v145v145h-350h-350V1755z"/>
	<path  d="M6294,1887c-2-7-3-71-2-143l3-129l353-3l352-2v145v145h-350C6371,1900,6298,1897,6294,1887z"/>
	<path  d="M7130,1755v-144l353,2l352,2l3,143l3,142h-356h-355V1755z"/>
	<path class="st3" d="M8825,1034c-27-2-171-11-320-19c-148-9-281-18-295-20c-14-3-81-9-150-15c-276-24-744-80-1170-140
		c-80-11-176-25-215-30c-38-5-146-21-240-35C5163,584,4489,520,3764,520c-764,0-1409,88-1972,269c-68,21-122,38-120,36
		c44-43,382-242,553-325C3318-31,4580-130,6306,180c230,41,647,126,909,185c88,20,187,42,220,50c33,7,133,29,223,49
		c496,110,734,159,1022,210c889,159,1630,162,2294,11c60-14,119-27,130-30c44-12-18,25-139,84c-294,144-655,230-1150,277
		C9656,1031,8955,1044,8825,1034z"/>
</g>
</svg>
