<?xml version="1.0" standalone="no"?>
<!DOCTYPE svg PUBLIC "-//W3C//DTD SVG 20010904//EN"
 "http://www.w3.org/TR/2001/REC-SVG-20010904/DTD/svg10.dtd">
<svg version="1.0" xmlns="http://www.w3.org/2000/svg"
 width="1280.000000pt" height="757.000000pt" viewBox="0 0 1280.000000 757.000000"
 preserveAspectRatio="xMidYMid meet">

<g transform="translate(0.000000,757.000000) scale(0.100000,-0.100000)"
fill="#000000" stroke="none">
<path d="M5550 7504 c0 -6 167 -187 397 -430 73 -78 133 -145 133 -149 0 -4
-107 -120 -237 -257 -131 -138 -263 -278 -294 -312 l-57 -61 207 -3 206 -2 35
37 c62 67 192 206 274 292 l80 84 78 -84 c43 -46 126 -137 186 -201 59 -64
116 -120 127 -123 11 -3 107 -4 214 -3 l194 3 -109 115 c-59 63 -178 189 -264
280 -86 91 -171 181 -188 201 l-31 35 106 115 c58 63 174 186 257 273 83 87
157 167 164 178 13 17 6 18 -187 18 l-200 0 -94 -97 c-51 -54 -130 -136 -174
-183 l-81 -84 -114 119 c-62 66 -140 148 -172 183 l-59 62 -199 0 c-109 0
-198 -3 -198 -6z"/>
<path d="M5258 7424 c-67 -34 -68 -35 -68 -75 0 -37 7 -48 87 -132 197 -207
234 -247 327 -346 l97 -105 -63 -65 c-35 -36 -65 -68 -68 -71 -3 -3 -45 -46
-93 -96 -78 -80 -87 -94 -82 -117 4 -15 10 -27 15 -27 12 0 78 68 72 74 -3 3
0 6 6 6 15 0 91 81 92 97 0 7 3 12 8 11 10 -4 262 262 262 276 0 4 -15 22 -32
39 -31 31 -61 63 -262 277 -44 47 -109 117 -145 155 -81 85 -103 113 -81 100
12 -7 13 -6 3 7 -7 8 -10 18 -6 21 11 12 0 7 -69 -29z"/>
<path d="M6365 7430 c-73 -35 -153 -111 -133 -128 26 -21 37 -15 119 71 46 48
82 87 79 87 -3 -1 -32 -14 -65 -30z"/>
<path d="M7496 7363 c-9 -48 -36 -196 -61 -328 -41 -223 -69 -372 -115 -620
-10 -55 -21 -112 -25 -127 -6 -23 -3 -27 22 -32 58 -12 611 -106 743 -126 30
-5 140 -23 243 -40 103 -18 190 -30 193 -28 7 7 37 188 32 193 -2 2 -100 20
-218 40 -180 30 -469 79 -597 100 -41 7 -40 6 -7 183 14 75 32 171 39 212 8
41 33 174 56 295 55 296 56 302 33 308 -11 3 -77 15 -149 27 -71 12 -140 24
-151 26 -20 5 -23 -1 -38 -83z"/>
<path d="M4605 7360 c-253 -43 -505 -86 -560 -95 -194 -33 -205 -36 -205 -52
0 -15 57 -329 164 -898 52 -276 53 -280 77 -279 26 1 1233 202 1260 210 15 4
15 12 -1 99 -9 52 -18 97 -21 99 -2 3 -38 -2 -79 -9 -152 -29 -871 -147 -874
-143 -5 6 -56 286 -56 307 0 12 6 21 13 21 22 1 829 138 833 142 5 6 -26 182
-34 190 -4 4 -195 -25 -426 -63 -230 -39 -422 -67 -426 -62 -9 9 -54 252 -48
258 3 3 478 84 618 105 110 17 293 49 296 53 2 2 -5 46 -15 98 -15 79 -21 94
-37 96 -10 0 -226 -34 -479 -77z"/>
<path d="M7233 7366 c-38 -19 -73 -42 -77 -52 -5 -11 -16 -62 -26 -114 -9 -52
-43 -234 -75 -403 l-58 -309 53 -53 c49 -50 79 -63 66 -30 -3 8 -1 15 4 17 4
2 15 44 24 93 9 50 23 128 32 175 25 131 29 154 58 320 15 85 31 171 36 190
13 51 39 194 36 197 -1 1 -34 -13 -73 -31z"/>
<path d="M3546 7145 c-32 -18 -63 -40 -68 -49 -10 -17 -1 -87 27 -226 7 -36
20 -103 29 -150 85 -453 69 -395 167 -594 103 -207 107 -229 47 -261 -45 -24
-47 -32 -11 -41 41 -11 1315 201 1375 228 43 19 66 21 280 22 l233 1 60 32
c33 18 67 37 75 42 10 7 -51 10 -198 10 -200 -1 -218 -2 -285 -25 -40 -14 -84
-25 -99 -26 -16 -1 -28 -5 -28 -10 0 -5 -4 -7 -8 -4 -4 2 -113 -13 -242 -35
-129 -22 -263 -44 -298 -49 -35 -6 -129 -22 -210 -36 -317 -55 -449 -75 -487
-72 -37 3 -41 6 -54 43 -7 22 -15 51 -16 65 -1 14 -12 79 -24 145 -12 66 -26
143 -31 170 -5 28 -14 73 -20 100 -12 53 -65 343 -80 435 -5 30 -18 100 -29
155 -19 92 -28 138 -30 158 -1 11 -11 7 -75 -28z"/>
<path d="M9075 6943 c-37 -104 -107 -296 -155 -428 -152 -415 -190 -522 -190
-528 0 -12 321 -110 329 -101 4 5 27 63 50 129 24 66 78 217 121 335 209 575
240 660 240 669 0 8 -299 111 -321 111 -3 0 -37 -84 -74 -187z"/>
<path d="M4935 7094 c-33 -7 -175 -32 -315 -55 -140 -23 -267 -44 -282 -47
-23 -3 -28 -9 -28 -33 0 -25 3 -29 23 -24 12 2 134 23 271 46 137 22 258 44
270 49 28 10 144 80 131 79 -5 -1 -37 -7 -70 -15z"/>
<path d="M8875 7059 c-33 -17 -67 -38 -76 -47 -12 -12 -185 -471 -256 -677 -1
-5 11 -18 28 -28 l32 -18 -6 -77 -5 -77 32 85 c18 47 52 137 76 200 23 63 54
149 70 190 15 41 46 129 69 195 23 66 48 135 56 153 8 18 15 39 15 47 0 8 5
15 12 15 6 0 8 3 5 7 -4 3 -2 12 4 20 9 10 8 13 -2 13 -11 0 -11 2 1 10 8 5
12 11 10 14 -3 2 -32 -9 -65 -25z"/>
<path d="M2970 6935 c-102 -46 -202 -90 -222 -99 -47 -18 -47 4 -8 -371 17
-159 35 -336 41 -393 6 -56 9 -108 7 -114 -3 -7 -146 124 -319 291 -173 167
-319 305 -326 308 -17 7 -473 -193 -473 -207 0 -9 128 -273 371 -767 l164
-332 138 61 c77 34 141 66 143 73 3 6 -88 200 -201 430 -113 230 -204 419
-203 421 2 1 167 -160 366 -357 200 -198 367 -359 371 -357 4 2 72 32 149 67
l142 64 0 36 c0 20 -6 88 -14 151 -8 63 -22 180 -31 260 -8 80 -22 201 -31
270 -26 219 -32 275 -29 278 2 2 98 -188 214 -422 115 -234 213 -426 218 -426
4 0 70 27 146 61 115 52 136 65 132 80 -3 10 -124 257 -268 548 -178 361 -266
531 -277 530 -8 0 -98 -38 -200 -84z"/>
<path d="M9920 6706 c-46 -83 -161 -288 -255 -456 -206 -365 -255 -455 -255
-464 0 -3 63 -37 140 -76 l139 -70 57 103 c32 56 75 134 97 172 22 39 82 147
135 240 52 94 98 174 102 178 9 10 15 -15 116 -473 42 -190 86 -388 98 -440
l21 -95 150 -77 c83 -42 153 -77 156 -78 4 0 56 88 159 275 15 27 214 383 371
664 32 57 61 111 64 121 4 14 -21 30 -129 83 -75 37 -139 67 -143 67 -4 -1
-51 -78 -103 -172 -52 -95 -115 -208 -141 -252 -25 -45 -72 -128 -104 -186
l-59 -105 -13 55 c-7 30 -26 116 -42 190 -16 74 -62 284 -102 467 l-74 332
-115 57 c-63 32 -131 65 -150 74 l-35 17 -85 -151z"/>
<path d="M9731 6783 l-73 -38 -87 -155 c-165 -293 -499 -885 -517 -916 -11
-20 -15 -39 -10 -57 5 -23 30 -39 166 -107 88 -44 169 -80 181 -80 12 0 53 17
91 37 66 35 69 38 47 46 -93 37 -313 153 -325 172 -17 25 -12 40 35 120 16 28
41 71 54 96 14 25 35 63 48 85 12 21 76 136 142 254 66 118 138 247 160 285
22 39 52 93 67 121 15 28 36 64 47 80 21 31 56 94 51 94 -2 0 -36 -17 -77 -37z"/>
<path d="M2428 6740 c-44 -23 -79 -48 -83 -59 -3 -11 -1 -68 5 -128 l11 -108
50 -49 c57 -56 118 -106 129 -106 11 0 -1 54 -14 62 -7 5 -3 8 9 8 12 0 16 3
9 8 -13 9 -38 218 -38 329 -1 46 -1 83 -1 82 0 0 -35 -18 -77 -39z"/>
<path d="M4958 6614 c-3 -3 -23 -7 -44 -10 -72 -9 -506 -84 -514 -89 -4 -2 -5
-15 -3 -27 l4 -23 247 41 c219 36 254 45 305 74 31 17 57 34 57 36 0 6 -46 5
-52 -2z"/>
<path d="M6129 6434 l-59 -57 32 -36 c63 -73 233 -246 252 -258 15 -9 86 -12
237 -13 l217 0 57 30 c31 17 59 30 61 30 2 0 4 -14 4 -30 0 -42 30 -53 225
-85 88 -14 360 -59 605 -100 488 -81 450 -79 549 -22 l44 25 -39 11 c-22 6
-57 13 -79 16 -47 6 -496 79 -610 99 -44 8 -127 22 -185 31 -289 47 -356 64
-347 89 3 7 1 19 -3 26 -6 10 -19 9 -62 -9 -49 -20 -72 -22 -263 -22 -116 -1
-222 -1 -237 0 -18 1 -39 15 -65 43 -21 23 -72 78 -115 122 -42 45 -89 96
-106 115 -19 22 -34 31 -42 26 -10 -6 -12 -4 -7 8 10 27 -1 20 -64 -39z"/>
<path d="M10654 6308 c-55 -28 -64 -37 -103 -107 l-43 -76 12 -65 c11 -64 29
-113 30 -80 0 17 45 107 114 228 26 46 45 90 42 98 -4 9 3 18 17 24 12 5 15 9
7 9 -8 0 -42 -14 -76 -31z"/>
<path d="M1412 6295 c-84 -39 -112 -62 -111 -93 0 -15 103 -231 227 -481 l227
-455 95 -23 c52 -13 100 -21 106 -19 11 4 -50 131 -356 748 -76 152 -141 285
-144 296 -4 12 0 26 9 36 23 22 9 20 -53 -9z"/>
<path d="M8580 6119 c0 -5 5 -7 10 -4 6 3 10 8 10 11 0 2 -4 4 -10 4 -5 0 -10
-5 -10 -11z"/>
<path d="M8485 5978 c-38 -17 -75 -34 -80 -38 -6 -5 -19 -34 -29 -65 l-20 -56
25 -23 c30 -30 369 -140 400 -131 39 13 156 86 125 79 -22 -5 -27 -4 -21 6 5
8 4 11 -3 6 -6 -3 -34 2 -64 13 -29 10 -100 33 -158 51 -58 18 -113 40 -122
48 -23 20 -23 59 1 105 10 20 18 37 17 36 0 0 -32 -14 -71 -31z"/>
<path d="M9931 5928 c-8 -13 -35 -59 -61 -103 l-46 -80 21 -100 c76 -353 108
-492 118 -503 6 -8 87 -52 181 -99 191 -96 194 -96 286 -38 41 26 49 35 33 35
-12 0 -28 6 -35 13 -7 6 -56 32 -108 57 -52 25 -119 59 -149 75 l-55 30 -19
85 c-10 47 -22 101 -27 120 -10 36 -55 233 -88 380 -11 47 -23 94 -27 105 l-8
20 17 -20 c16 -19 16 -18 1 13 -8 17 -17 32 -18 32 -1 0 -9 -10 -16 -22z"/>
<path d="M3174 5785 c20 -138 20 -144 -14 -175 -18 -17 -29 -30 -25 -30 11 0
245 103 242 106 -1 2 -23 -4 -47 -12 -54 -19 -82 -9 -106 38 -9 18 -20 35 -24
38 -4 3 -12 19 -18 35 l-12 30 4 -30z"/>
<path d="M11372 5348 l-462 -423 457 -451 c455 -449 458 -452 480 -434 12 9
48 40 79 69 l56 52 -337 332 -338 332 121 110 c67 60 125 111 129 112 4 2 143
-129 308 -291 l300 -293 78 70 79 71 -302 294 c-165 162 -300 298 -298 302 5
14 192 180 202 180 5 0 129 -119 275 -263 146 -145 290 -287 319 -316 l54 -51
56 49 c32 27 66 59 77 71 l20 22 -225 221 c-124 121 -324 319 -445 439 l-220
218 -463 -422z"/>
<path d="M3420 5710 c-19 -11 -30 -19 -25 -19 6 0 26 8 45 19 19 11 31 19 25
19 -5 0 -26 -8 -45 -19z"/>
<path d="M11558 5697 c-59 -28 -114 -73 -268 -217 -9 -8 -63 -58 -120 -110
-58 -52 -134 -121 -170 -155 -78 -72 -230 -210 -357 -325 -119 -107 -121 -118
-35 -199 55 -52 239 -232 683 -669 167 -164 211 -202 233 -202 15 0 57 14 92
32 63 32 64 32 41 47 -13 9 -37 30 -54 46 -16 17 -204 201 -418 410 -466 456
-482 472 -488 496 -3 12 -1 17 5 13 6 -4 9 -1 6 7 -3 8 11 27 31 42 20 16 90
79 156 141 66 62 145 135 175 161 30 27 64 58 76 69 17 18 78 74 246 226 15
14 60 55 100 91 40 37 89 81 108 98 19 17 33 30 30 30 -3 0 -35 -14 -72 -32z"/>
<path d="M497 5371 c-120 -118 -128 -129 -118 -151 6 -14 46 -128 90 -255 117
-340 353 -1020 355 -1022 0 0 59 54 130 121 l130 123 -52 139 c-29 76 -52 144
-52 151 0 10 462 475 478 481 4 1 77 -18 162 -43 l155 -45 129 129 129 129
-54 15 c-30 9 -178 48 -329 87 -151 40 -313 83 -360 95 -84 23 -344 91 -555
145 l-109 29 -129 -128z m353 -236 c157 -45 364 -106 367 -109 6 -5 -318 -321
-325 -317 -10 7 -180 461 -173 461 4 0 63 -16 131 -35z"/>
<path d="M884 4918 c10 -49 22 -54 50 -22 26 31 23 36 -28 48 -28 7 -29 6 -22
-26z"/>
<path d="M2532 5473 c34 -66 39 -87 28 -114 -7 -16 -21 -31 -32 -35 -11 -3
-17 -8 -14 -12 5 -5 206 76 206 83 0 2 -11 2 -25 1 -14 0 -25 -5 -25 -10 0 -5
-10 -1 -22 10 -19 16 -20 16 -9 1 12 -15 12 -17 0 -11 -8 3 -30 25 -49 49 -19
24 -41 44 -48 44 -8 1 -12 -2 -10 -6z"/>
<path d="M2820 5445 c-14 -8 -20 -14 -14 -15 5 0 19 7 30 15 24 18 16 19 -16
0z"/>
<path d="M348 5427 c-68 -31 -338 -290 -338 -324 0 -22 102 -321 299 -883 32
-91 80 -228 106 -305 27 -77 55 -148 63 -157 23 -27 70 -21 139 16 61 32 62
33 38 44 -26 12 -38 35 -75 147 -12 39 -26 79 -31 90 -4 11 -29 81 -54 155
-26 74 -50 144 -55 155 -4 11 -22 63 -40 115 -26 76 -106 306 -133 380 -3 8
-29 83 -58 167 -31 85 -58 149 -64 146 -5 -3 11 15 37 41 26 25 44 46 42 46
-3 0 14 17 38 38 57 50 153 152 142 151 -5 0 -30 -10 -56 -22z"/>
<path d="M2750 5415 c-14 -8 -20 -14 -15 -14 6 0 21 6 35 14 14 8 21 14 15 14
-5 0 -21 -6 -35 -14z"/>
<path d="M2140 5145 c-14 -8 -20 -14 -14 -15 5 0 19 7 30 15 24 18 16 19 -16
0z"/>
<path d="M3127 4909 c-4 -51 -7 -170 -7 -266 0 -95 -3 -173 -7 -173 -41 0
-188 -32 -194 -42 -5 -7 -9 -65 -9 -129 0 -64 -3 -130 -6 -147 -7 -34 -13 -35
-224 -63 -47 -6 -86 -12 -88 -14 -2 -2 2 -57 9 -124 l12 -121 731 1 731 0 31
39 c28 34 33 51 39 120 4 45 6 83 4 85 -2 1 -141 8 -308 14 -168 6 -306 13
-309 16 -2 2 -9 76 -15 163 l-11 160 -98 22 -99 22 1 262 1 261 -89 3 -89 3
-6 -92z"/>
<path d="M11433 4846 l-27 -24 268 -263 c148 -145 271 -265 275 -266 3 -2 24
9 46 23 22 14 32 23 22 20 -19 -6 -39 10 -154 122 -35 34 -61 62 -57 62 4 0
-10 13 -30 29 -20 16 -52 46 -70 66 -23 25 -35 32 -39 23 -3 -8 -6 -6 -6 6 -1
11 -19 36 -40 57 -22 20 -37 40 -34 43 4 3 1 6 -5 6 -16 0 -72 54 -72 70 0 7
-7 10 -15 6 -9 -3 -15 0 -15 10 0 9 -5 12 -12 8 -8 -5 -9 -2 -5 9 9 23 3 21
-30 -7z"/>
<path d="M1352 4764 c-29 -26 -51 -48 -49 -50 2 -3 44 -16 93 -29 l88 -24 74
37 73 37 -88 28 c-48 15 -92 25 -98 23 -5 -2 -17 3 -25 10 -14 12 -23 7 -68
-32z"/>
<path d="M12391 4618 c-1 -21 7 -22 29 -7 13 9 13 10 -2 6 -9 -3 -19 -1 -22 6
-2 7 -5 4 -5 -5z"/>
<path d="M2610 3402 l0 -239 443 -6 c243 -4 525 -7 628 -7 l185 0 23 73 c12
39 47 147 77 240 30 92 54 170 54 172 0 3 -317 5 -705 5 l-705 0 0 -238z"/>
<path d="M4617 3093 c-4 -3 -7 -69 -7 -145 l0 -138 350 0 350 0 0 145 0 145
-343 0 c-189 0 -347 -3 -350 -7z"/>
<path d="M5460 2960 l0 -140 350 0 350 0 0 140 0 140 -350 0 -350 0 0 -140z"/>
<path d="M6294 3087 c-2 -7 -3 -69 -2 -138 l3 -124 353 -3 352 -2 0 140 0 140
-350 0 c-279 0 -352 -3 -356 -13z"/>
<path d="M7130 2955 l0 -145 355 0 355 0 0 145 0 145 -355 0 -355 0 0 -145z"/>
<path d="M2601 2891 c-14 -78 -9 -75 -128 -87 l-73 -7 -2 -301 -3 -301 -270
-12 c-148 -6 -282 -12 -296 -12 -26 -1 -26 -1 -38 -128 -21 -239 -13 -387 35
-603 56 -249 134 -450 193 -497 29 -23 216 -91 321 -117 141 -34 328 -63 540
-84 222 -21 1069 -24 1375 -4 504 33 1061 87 1500 146 404 55 530 74 905 137
1209 204 2512 253 3415 128 83 -11 169 -23 191 -26 l42 -5 42 73 c57 98 140
216 238 338 160 200 475 544 666 730 48 46 85 86 83 88 -2 2 -67 10 -143 18
-247 26 -996 18 -1374 -15 -213 -19 -499 -50 -645 -71 -330 -47 -822 -142
-1050 -202 l-50 -13 -7 -85 c-4 -46 -11 -178 -14 -293 l-6 -209 -637 6 c-350
4 -1159 7 -1798 7 l-1163 0 0 305 c0 246 -3 305 -13 305 -22 0 -350 49 -353
53 -6 6 -34 493 -34 583 l0 81 -87 23 c-71 18 -96 30 -128 60 l-40 38 -545 11
c-300 6 -566 11 -591 11 l-46 0 -12 -69z"/>
<path d="M4627 2693 c-4 -3 -7 -66 -7 -140 l0 -133 355 0 355 0 0 140 0 140
-348 0 c-192 0 -352 -3 -355 -7z"/>
<path d="M5460 2560 l0 -140 350 0 350 0 0 140 0 140 -350 0 -350 0 0 -140z"/>
<path d="M6297 2693 c-4 -3 -7 -66 -7 -140 l0 -133 355 0 355 0 0 140 0 140
-348 0 c-192 0 -352 -3 -355 -7z"/>
<path d="M7130 2560 l0 -140 355 0 355 0 0 140 0 140 -355 0 -355 0 0 -140z"/>
<path d="M4627 2293 c-4 -3 -7 -66 -7 -138 l0 -132 77 -7 c97 -8 561 -8 602 0
l31 7 0 138 0 139 -348 0 c-192 0 -352 -3 -355 -7z"/>
<path d="M5460 2161 c0 -112 3 -140 15 -144 8 -4 165 -6 350 -7 l335 0 0 145
0 145 -350 0 -350 0 0 -139z"/>
<path d="M6297 2293 c-4 -3 -7 -64 -7 -134 0 -117 2 -129 19 -139 21 -11 606
-15 660 -4 l31 7 0 138 0 139 -348 0 c-192 0 -352 -3 -355 -7z"/>
<path d="M7130 2156 l0 -145 328 0 c180 0 339 3 355 6 l27 5 0 139 0 139 -355
0 -355 0 0 -144z"/>
<path d="M4627 1893 c-4 -3 -7 -66 -7 -139 0 -130 1 -134 23 -139 12 -3 171
-4 352 -3 l330 3 3 143 3 142 -349 0 c-192 0 -352 -3 -355 -7z"/>
<path d="M5460 1755 l0 -144 350 -1 350 0 0 145 0 145 -350 0 -350 0 0 -145z"/>
<path d="M6294 1887 c-2 -7 -3 -71 -2 -143 l3 -129 353 -3 352 -2 0 145 0 145
-350 0 c-279 0 -352 -3 -356 -13z"/>
<path d="M7130 1755 l0 -144 353 2 352 2 3 143 3 142 -356 0 -355 0 0 -145z"/>
<path d="M8825 1034 c-27 -2 -171 -11 -320 -19 -148 -9 -281 -18 -295 -20 -14
-3 -81 -9 -150 -15 -276 -24 -744 -80 -1170 -140 -80 -11 -176 -25 -215 -30
-38 -5 -146 -21 -240 -35 -1272 -191 -1946 -255 -2671 -255 -764 0 -1409 88
-1972 269 -68 21 -122 38 -120 36 44 -43 382 -242 553 -325 1093 -531 2355
-630 4081 -320 230 41 647 126 909 185 88 20 187 42 220 50 33 7 133 29 223
49 496 110 734 159 1022 210 889 159 1630 162 2294 11 60 -14 119 -27 130 -30
44 -12 -18 25 -139 84 -294 144 -655 230 -1150 277 -159 15 -860 28 -990 18z"/>
</g>
</svg>
