<?xml version="1.0" encoding="utf-8"?>
<!-- Generator: Adobe Illustrator 24.3.0, SVG Export Plug-In . SVG Version: 6.00 Build 0)  -->
<svg version="1.1" id="Layer_1" xmlns="http://www.w3.org/2000/svg" xmlns:xlink="http://www.w3.org/1999/xlink" x="0px" y="0px"
	 viewBox="0 0 1280 757" style="enable-background:new 0 0 1280 757;" xml:space="preserve">
<style type="text/css">
	.st0{fill:#2D005F;}
	.st1{fill:url(#SVGID_1_);}
	.st2{fill:#0B0054;}
	.st3{fill:url(#SVGID_2_);stroke:url(#SVGID_3_);stroke-miterlimit:10;}
	.st4{fill:url(#SVGID_4_);stroke:url(#SVGID_5_);stroke-miterlimit:10;}
	.st5{fill:url(#SVGID_6_);stroke:url(#SVGID_7_);stroke-miterlimit:10;}
	.st6{fill:url(#SVGID_8_);stroke:url(#SVGID_9_);stroke-miterlimit:10;}
	.st7{fill:url(#SVGID_10_);stroke:url(#SVGID_11_);stroke-miterlimit:10;}
	.st8{fill:url(#SVGID_12_);stroke:url(#SVGID_13_);stroke-miterlimit:10;}
	.st9{fill:url(#SVGID_14_);stroke:url(#SVGID_15_);stroke-miterlimit:10;}
	.st10{fill:url(#SVGID_16_);stroke:url(#SVGID_17_);stroke-miterlimit:10;}
	.st11{fill:url(#SVGID_18_);stroke:url(#SVGID_19_);stroke-miterlimit:10;}
	.st12{fill:url(#SVGID_20_);stroke:url(#SVGID_21_);stroke-miterlimit:10;}
	.st13{fill:url(#SVGID_22_);stroke:url(#SVGID_23_);stroke-miterlimit:10;}
	.st14{fill:url(#SVGID_24_);stroke:url(#SVGID_25_);stroke-miterlimit:10;}
	.st15{fill:url(#SVGID_26_);stroke:url(#SVGID_27_);stroke-miterlimit:10;}
	.st16{fill:url(#SVGID_28_);stroke:url(#SVGID_29_);stroke-miterlimit:10;}
	.st17{fill:url(#SVGID_30_);stroke:url(#SVGID_31_);stroke-miterlimit:10;}
	.st18{fill:url(#SVGID_32_);stroke:url(#SVGID_33_);stroke-miterlimit:10;}
	.st19{fill:url(#SVGID_34_);stroke:url(#SVGID_35_);stroke-miterlimit:10;}
	.st20{fill:url(#SVGID_36_);stroke:url(#SVGID_37_);stroke-miterlimit:10;}
	.st21{fill:url(#SVGID_38_);stroke:url(#SVGID_39_);stroke-miterlimit:10;}
	.st22{fill:url(#SVGID_40_);stroke:url(#SVGID_41_);stroke-miterlimit:10;}
	.st23{fill:url(#SVGID_42_);stroke:url(#SVGID_43_);stroke-miterlimit:10;}
	.st24{fill:url(#SVGID_44_);stroke:url(#SVGID_45_);stroke-miterlimit:10;}
	.st25{fill:#790004;}
	.st26{fill:#ED1C24;}
	.st27{fill:#25003F;}
	.st28{fill:#006A5C;}
	.st29{fill:#AA1F23;}
	.st30{fill:#FFFFFF;stroke:#FFFFFF;stroke-width:0.75;stroke-miterlimit:10;}
	.st31{fill:#2A307D;}
</style>
<g transform="translate(0.000000,757.000000) scale(0.100000,-0.100000)">
	<path d="M8580,6119c0-5,5-7,10-4c6,3,10,8,10,11c0,2-4,4-10,4C8585,6130,8580,6125,8580,6119z"/>
	<path d="M3420,5710c-19-11-30-19-25-19c6,0,26,8,45,19s31,19,25,19C3460,5729,3439,5721,3420,5710z"/>
	<g>
		<path class="st0" d="M5550,7504c0-6,167-187,397-430c73-78,133-145,133-149s-107-120-237-257c-131-138-263-278-294-312l-57-61
			l207-3l206-2l35,37c62,67,192,206,274,292l80,84l78-84c43-46,126-137,186-201c59-64,116-120,127-123s107-4,214-3l194,3l-109,115
			c-59,63-178,189-264,280s-171,181-188,201l-31,35l106,115c58,63,174,186,257,273s157,167,164,178c13,17,6,18-187,18h-200l-94-97
			c-51-54-130-136-174-183l-81-84l-114,119c-62,66-140,148-172,183l-59,62h-199C5639,7510,5550,7507,5550,7504z"/>
		<path class="st0" d="M7496,7363c-9-48-36-196-61-328c-41-223-69-372-115-620c-10-55-21-112-25-127c-6-23-3-27,22-32
			c58-12,611-106,743-126c30-5,140-23,243-40c103-18,190-30,193-28c7,7,37,188,32,193c-2,2-100,20-218,40c-180,30-469,79-597,100
			c-41,7-40,6-7,183c14,75,32,171,39,212c8,41,33,174,56,295c55,296,56,302,33,308c-11,3-77,15-149,27c-71,12-140,24-151,26
			C7514,7451,7511,7445,7496,7363z"/>
		<path class="st0" d="M4605,7360c-253-43-505-86-560-95c-194-33-205-36-205-52c0-15,57-329,164-898c52-276,53-280,77-279
			c26,1,1233,202,1260,210c15,4,15,12-1,99c-9,52-18,97-21,99c-2,3-38-2-79-9c-152-29-871-147-874-143c-5,6-56,286-56,307
			c0,12,6,21,13,21c22,1,829,138,833,142c5,6-26,182-34,190c-4,4-195-25-426-63c-230-39-422-67-426-62c-9,9-54,252-48,258
			c3,3,478,84,618,105c110,17,293,49,296,53c2,2-5,46-15,98c-15,79-21,94-37,96C5074,7437,4858,7403,4605,7360z"/>
		<path class="st0" d="M9075,6943c-37-104-107-296-155-428c-152-415-190-522-190-528c0-12,321-110,329-101c4,5,27,63,50,129
			c24,66,78,217,121,335c209,575,240,660,240,669c0,8-299,111-321,111C9146,7130,9112,7046,9075,6943z"/>
		<path class="st0" d="M2970,6935c-102-46-202-90-222-99c-47-18-47,4-8-371c17-159,35-336,41-393c6-56,9-108,7-114
			c-3-7-146,124-319,291s-319,305-326,308c-17,7-473-193-473-207c0-9,128-273,371-767l164-332l138,61c77,34,141,66,143,73
			c3,6-88,200-201,430s-204,419-203,421c2,1,167-160,366-357c200-198,367-359,371-357s72,32,149,67l142,64v36c0,20-6,88-14,151
			s-22,180-31,260c-8,80-22,201-31,270c-26,219-32,275-29,278c2,2,98-188,214-422c115-234,213-426,218-426c4,0,70,27,146,61
			c115,52,136,65,132,80c-3,10-124,257-268,548c-178,361-266,531-277,530C3162,7019,3072,6981,2970,6935z"/>
		<path class="st0" d="M9920,6706c-46-83-161-288-255-456c-206-365-255-455-255-464c0-3,63-37,140-76l139-70l57,103
			c32,56,75,134,97,172c22,39,82,147,135,240c52,94,98,174,102,178c9,10,15-15,116-473c42-190,86-388,98-440l21-95l150-77
			c83-42,153-77,156-78c4,0,56,88,159,275c15,27,214,383,371,664c32,57,61,111,64,121c4,14-21,30-129,83c-75,37-139,67-143,67
			c-4-1-51-78-103-172c-52-95-115-208-141-252c-25-45-72-128-104-186l-59-105l-13,55c-7,30-26,116-42,190s-62,284-102,467l-74,332
			l-115,57c-63,32-131,65-150,74l-35,17L9920,6706z"/>
		<path class="st0" d="M11372,5348l-462-423l457-451c455-449,458-452,480-434c12,9,48,40,79,69l56,52l-337,332l-338,332l121,110
			c67,60,125,111,129,112c4,2,143-129,308-291l300-293l78,70l79,71l-302,294c-165,162-300,298-298,302c5,14,192,180,202,180
			c5,0,129-119,275-263c146-145,290-287,319-316l54-51l56,49c32,27,66,59,77,71l20,22l-225,221c-124,121-324,319-445,439l-220,218
			L11372,5348z"/>
		<path class="st0" d="M497,5371c-120-118-128-129-118-151c6-14,46-128,90-255c117-340,353-1020,355-1022c0,0,59,54,130,121l130,123
			l-52,139c-29,76-52,144-52,151c0,10,462,475,478,481c4,1,77-18,162-43l155-45l129,129l129,129l-54,15c-30,9-178,48-329,87
			c-151,40-313,83-360,95c-84,23-344,91-555,145l-109,29L497,5371z M850,5135c157-45,364-106,367-109c6-5-318-321-325-317
			c-10,7-180,461-173,461C723,5170,782,5154,850,5135z"/>
	</g>
	<path d="M2820,5445c-14-8-20-14-14-15c5,0,19,7,30,15C2860,5463,2852,5464,2820,5445z"/>
	<path d="M2750,5415c-14-8-20-14-15-14c6,0,21,6,35,14s21,14,15,14C2780,5429,2764,5423,2750,5415z"/>
	<g>
		<linearGradient id="SVGID_1_" gradientUnits="userSpaceOnUse" x1="2169.9546" y1="5144.439" x2="2165.3276" y2="5144.439">
			<stop  offset="0" style="stop-color:#FFFFFF"/>
			<stop  offset="0.1145" style="stop-color:#DBDADA"/>
			<stop  offset="0.2765" style="stop-color:#7B7879"/>
			<stop  offset="1" style="stop-color:#000000"/>
		</linearGradient>
		<path class="st1" d="M2140,5145c-14-8-20-14-14-15c5,0,19,7,30,15C2180,5163,2172,5164,2140,5145z"/>
		<g>
			
				<image style="overflow:visible;" width="5.6" height="3.9" xlink:href="CC8CF42B.png"  transform="matrix(10 0 0 -10 2118.6909 5163.9263)"/>
		</g>
	</g>
	<path class="st2" d="M3127,4909c-4-51-7-170-7-266c0-95-3-173-7-173c-41,0-188-32-194-42c-5-7-9-65-9-129s-3-130-6-147
		c-7-34-13-35-224-63c-47-6-86-12-88-14s2-57,9-124l12-121l731,1h731l31,39c28,34,33,51,39,120c4,45,6,83,4,85c-2,1-141,8-308,14
		c-168,6-306,13-309,16c-2,2-9,76-15,163l-11,160l-98,22l-99,22l1,262l1,261l-89,3l-89,3L3127,4909z"/>
	<g>
		<linearGradient id="SVGID_2_" gradientUnits="userSpaceOnUse" x1="5850" y1="6924.4214" x2="5784" y2="6924.4214">
			<stop  offset="0" style="stop-color:#FFFFFF"/>
			<stop  offset="0.1145" style="stop-color:#DBDADA"/>
			<stop  offset="0.2765" style="stop-color:#7B7879"/>
			<stop  offset="0.9944" style="stop-color:#000000"/>
		</linearGradient>
		<linearGradient id="SVGID_3_" gradientUnits="userSpaceOnUse" x1="5855" y1="6924.4214" x2="5788" y2="6924.4214">
			<stop  offset="0" style="stop-color:#FFFFFF"/>
			<stop  offset="1" style="stop-color:#000000"/>
		</linearGradient>
		<path class="st3" d="M5258,7424c-67-34-68-35-68-75c0-37,7-48,87-132c171.1-179.8,284.1-213.2,408.9-346l15.1-105l-63-65
			c-35-36-65-68-68-71s-45-46-93-96c-78-80-87-94-82-117c4-15,10-27,15-27c12,0,78,68,72,74c-3,3,0,6,6,6c15,0,91,81,92,97
			c0,7,3,12,8,11c10-4,262,262,262,276c0,4-15,22-32,39c-31,31-61,63-262,277c-44,47-109,117-145,155c-81,85-103,113-81,100
			c12-7,13-6,3,7c-7,8-10,18-6,21C5338,7465,5327,7460,5258,7424z"/>
		<linearGradient id="SVGID_4_" gradientUnits="userSpaceOnUse" x1="6430.1748" y1="7377.1387" x2="6407.2085" y2="7377.1387">
			<stop  offset="0" style="stop-color:#FFFFFF"/>
			<stop  offset="0.1145" style="stop-color:#DBDADA"/>
			<stop  offset="0.2765" style="stop-color:#7B7879"/>
			<stop  offset="0.9944" style="stop-color:#000000"/>
		</linearGradient>
		<linearGradient id="SVGID_5_" gradientUnits="userSpaceOnUse" x1="6435.1748" y1="7377.1387" x2="6411.2085" y2="7377.1387">
			<stop  offset="0" style="stop-color:#FFFFFF"/>
			<stop  offset="1" style="stop-color:#000000"/>
		</linearGradient>
		<path class="st4" d="M6365,7430c-39.8-23.4-153-111-133-128c-64.4,52-32.6-88,119,71c46,48,82,87,79,87
			C6427,7459,6380.4,7439.1,6365,7430z"/>
		<linearGradient id="SVGID_6_" gradientUnits="userSpaceOnUse" x1="7246.2466" y1="6891.9282" x2="7215.3228" y2="6891.9282">
			<stop  offset="0" style="stop-color:#FFFFFF"/>
			<stop  offset="0.1145" style="stop-color:#DBDADA"/>
			<stop  offset="0.2765" style="stop-color:#7B7879"/>
			<stop  offset="0.9944" style="stop-color:#000000"/>
		</linearGradient>
		<linearGradient id="SVGID_7_" gradientUnits="userSpaceOnUse" x1="7251.2466" y1="6891.9282" x2="7219.2246" y2="6891.9282">
			<stop  offset="0" style="stop-color:#FFFFFF"/>
			<stop  offset="1" style="stop-color:#000000"/>
		</linearGradient>
		<path class="st5" d="M7173,7366c-38-19-73-42-77-52c-5-11-16-62-26-114c-9-52,38.9-234,6.9-403L6937,6488l53-53c49-50,79-63,66-30
			c-3,8-1,15,4,17c4,2,15,44,24,93c9,50,23.9,131.3,32,175c14.9,79.9,29,154,58,320c15,85,31,171,36,190c13,51,39,194,36,197
			C7245,7398,7212,7384,7173,7366z"/>
		<linearGradient id="SVGID_8_" gradientUnits="userSpaceOnUse" x1="5761.0513" y1="6501.0083" x2="5532.3516" y2="6501.0083">
			<stop  offset="0" style="stop-color:#FFFFFF"/>
			<stop  offset="0.1145" style="stop-color:#DBDADA"/>
			<stop  offset="0.2765" style="stop-color:#7B7879"/>
			<stop  offset="0.9944" style="stop-color:#000000"/>
		</linearGradient>
		<linearGradient id="SVGID_9_" gradientUnits="userSpaceOnUse" x1="5766.0513" y1="6501.0083" x2="5536.3516" y2="6501.0083">
			<stop  offset="0" style="stop-color:#FFFFFF"/>
			<stop  offset="1" style="stop-color:#000000"/>
		</linearGradient>
		<path class="st6" d="M3546,7145c-32-18-63-40-68-49c-10-17-1-87,27-226c7-36,20-103,29-150c85-453,69-395,167-594
			c103-207,107-229,47-261c-45-24-47-32-11-41c41-11,1315,201,1375,228c43,19,6,21,301.9,22l293,1l-21.9,32c33,18,67,37,75,42
			c10,7-51,10-198,10c-200-1-218-2-285-25c-40-14-84-25-99-26c-16-1-28-5-28-10s-4-7-8-4c-4,2-113-13-242-35s-263-44-298-49
			c-35-6-129-22-210-36c-317-55-364-74.8-487-72c-17.3,0.4-41,6-54,43c-7,22-15,51-16,65s-12,79-24,145s-26,143-31,170
			c-5,28-14,73-20,100c-12,53-65,343-80,435c-5,30-18,100-29,155c-19,92-28,138-30,158C3620,7184,3610,7180,3546,7145z"/>
		<linearGradient id="SVGID_10_" gradientUnits="userSpaceOnUse" x1="5005.7681" y1="7021.0669" x2="4936.1914" y2="7021.0669">
			<stop  offset="0" style="stop-color:#FFFFFF"/>
			<stop  offset="0.1145" style="stop-color:#DBDADA"/>
			<stop  offset="0.2765" style="stop-color:#7B7879"/>
			<stop  offset="0.9944" style="stop-color:#000000"/>
		</linearGradient>
		<linearGradient id="SVGID_11_" gradientUnits="userSpaceOnUse" x1="5010.7681" y1="7021.0669" x2="4940.1914" y2="7021.0669">
			<stop  offset="0" style="stop-color:#FFFFFF"/>
			<stop  offset="1" style="stop-color:#000000"/>
		</linearGradient>
		<path class="st7" d="M4935,7094c-33-7-93.1-32-233.1-55s-348.9-44-363.9-47c-23-3-28-9-28-33c0-25,3-29,23-24c12,2,134,23,271,46
			c137,22,159.6,29.8,210,49c48.3,18.4,204,80,191,79C5000,7108,4968,7102,4935,7094z"/>
		<linearGradient id="SVGID_12_" gradientUnits="userSpaceOnUse" x1="9674.2676" y1="6609.6172" x2="9634.5107" y2="6609.6172">
			<stop  offset="0" style="stop-color:#FFFFFF"/>
			<stop  offset="0.5316" style="stop-color:#512696"/>
			<stop  offset="0.9944" style="stop-color:#000000"/>
		</linearGradient>
		<linearGradient id="SVGID_13_" gradientUnits="userSpaceOnUse" x1="8945.5098" y1="6595.501" x2="8904.7529" y2="6595.501">
			<stop  offset="0" style="stop-color:#FFFFFF"/>
			<stop  offset="1" style="stop-color:#000000"/>
		</linearGradient>
		<path class="st8" d="M8875,7059c-33-17-67-38-76-47c-256.1-256.1-100.9-226.9-256-677c-1-5,11-18,28-28l32-18l-6-77l-5-77l32,85
			c18,47,57.4,149.8,76,200c17.6,47.5,54,149,70,190c15,41,46,129,69,195s48,135,56,153s15,39,15,47s5,15,12,15c6,0,8,3,5,7
			c-4,3-2,12,4,20c9,10,8,13-2,13c-11,0-11,2,1,10c8,5,12,11,10,14C8937,7086,8908,7075,8875,7059z"/>
		<linearGradient id="SVGID_14_" gradientUnits="userSpaceOnUse" x1="9808.4834" y1="6125" x2="9731.8223" y2="6125">
			<stop  offset="0" style="stop-color:#FFFFFF"/>
			<stop  offset="0.1145" style="stop-color:#DBDADA"/>
			<stop  offset="0.4567" style="stop-color:#7B7879"/>
			<stop  offset="0.9944" style="stop-color:#000000"/>
		</linearGradient>
		<linearGradient id="SVGID_15_" gradientUnits="userSpaceOnUse" x1="9813.4834" y1="6125" x2="9735.8223" y2="6125">
			<stop  offset="0" style="stop-color:#FFFFFF"/>
			<stop  offset="1" style="stop-color:#000000"/>
		</linearGradient>
		<path class="st9" d="M9731,6783l-73-38l-87-155c-181.3-321.9-490.8-870.9-517-916c-11-20-15-39-10-57c5-23,30-39,166-107
			c88-44,169-80,181-80s53,17,91,37c66,35,69,38,47,46c-93,37-313,153-325,172c-17,25-12,40,35,120c16,28,41,71,54,96
			c14,25,35,63,48,85c12,21,76,136,142,254s138,247,160,285c22,39,52,93,67,121s36,64,47,80c21,31,56,94,51,94
			C9806,6820,9772,6803,9731,6783z"/>
		<linearGradient id="SVGID_16_" gradientUnits="userSpaceOnUse" x1="2547.4446" y1="6534.5098" x2="2527.0623" y2="6534.5098">
			<stop  offset="0" style="stop-color:#FFFFFF"/>
			<stop  offset="0.1145" style="stop-color:#DBDADA"/>
			<stop  offset="0.2765" style="stop-color:#7B7879"/>
			<stop  offset="0.9944" style="stop-color:#000000"/>
		</linearGradient>
		<linearGradient id="SVGID_17_" gradientUnits="userSpaceOnUse" x1="2552.4446" y1="6534.5098" x2="2531.0623" y2="6534.5098">
			<stop  offset="0" style="stop-color:#FFFFFF"/>
			<stop  offset="1" style="stop-color:#000000"/>
		</linearGradient>
		<path class="st10" d="M2428,6740c-44-23-79-48-83-59c-3-11-1-68,5-128l11-108l50-49c57-56,118-106,129-106s-1,54-14,62
			c-7,5-3,8,9,8s16,3,9,8c-13,9-38,218-38,329c-1,46-1,83-1,82C2505,6779,2470,6761,2428,6740z"/>
		<linearGradient id="SVGID_18_" gradientUnits="userSpaceOnUse" x1="5010" y1="6542.4697" x2="4948.6001" y2="6542.4697">
			<stop  offset="0" style="stop-color:#FFFFFF"/>
			<stop  offset="0.1145" style="stop-color:#DBDADA"/>
			<stop  offset="0.2765" style="stop-color:#7B7879"/>
			<stop  offset="0.9944" style="stop-color:#000000"/>
		</linearGradient>
		<linearGradient id="SVGID_19_" gradientUnits="userSpaceOnUse" x1="5015" y1="6542.1943" x2="4952.6001" y2="6542.1943">
			<stop  offset="0" style="stop-color:#FFFFFF"/>
			<stop  offset="1" style="stop-color:#000000"/>
		</linearGradient>
		<path class="st11" d="M4958,6614c-3-3-23-7-44-10c-272-34-466-59-514-89c-4-2-5-15-3-27l4-23l328.9,41c219,36,172.1,45,223.1,74
			c31,17,57,34,57,36C5010,6622,4964,6621,4958,6614z"/>
		<linearGradient id="SVGID_20_" gradientUnits="userSpaceOnUse" x1="8353" y1="6170.0396" x2="8124.7002" y2="6170.0396">
			<stop  offset="0" style="stop-color:#FFFFFF"/>
			<stop  offset="0.1145" style="stop-color:#DBDADA"/>
			<stop  offset="0.2765" style="stop-color:#7B7879"/>
			<stop  offset="0.9944" style="stop-color:#000000"/>
		</linearGradient>
		<linearGradient id="SVGID_21_" gradientUnits="userSpaceOnUse" x1="8365.874" y1="6170.0396" x2="8135.5942" y2="6170.0396">
			<stop  offset="0" style="stop-color:#FFFFFF"/>
			<stop  offset="1" style="stop-color:#000000"/>
		</linearGradient>
		<path class="st12" d="M6129,6434l-59-57l32-36c63-73,233-246,252-258c15-9,86-12,237-13h217l57,30c31,17,59,30,61,30s4-14,4-30
			c0-42,30-53,225-85c30.9-4.9,301.5-49.2,605-100c488-81,450-79,549-22l44,25l-39,11c-22,6-57,13-79,16c-47,6-496,79-610,99
			c-44,8-127,22-185,31c-289,47-356,64-347,89c3,7,1,19-3,26c-6,10-19,9-62-9c-49-20-72-22-263-22c-116-1-178.8-11.1-237,0
			c-19.1,3.6-39,15-65,43c-21,23-72,78-115,122c-42,45-89,96-106,115c-19,22-34,31-42,26c-10-6-12-4-7,8
			C6203,6500,6192,6493,6129,6434z"/>
		<linearGradient id="SVGID_22_" gradientUnits="userSpaceOnUse" x1="10734.4648" y1="6154.2065" x2="10711.8184" y2="6154.2065">
			<stop  offset="0" style="stop-color:#FFFFFF"/>
			<stop  offset="0.1145" style="stop-color:#DBDADA"/>
			<stop  offset="0.2765" style="stop-color:#7B7879"/>
			<stop  offset="0.9944" style="stop-color:#000000"/>
		</linearGradient>
		<linearGradient id="SVGID_23_" gradientUnits="userSpaceOnUse" x1="10739.4648" y1="6154.2065" x2="10715.7939" y2="6154.2065">
			<stop  offset="0" style="stop-color:#FFFFFF"/>
			<stop  offset="1" style="stop-color:#000000"/>
		</linearGradient>
		<path class="st13" d="M10654,6308c-55-28-84.2-75-103-107c-11-18.8-43-76-43-76l12-65c11-64,29-113,30-80
			c0,297.5-115-173.5,114,228c26,46,45,90,42,98c-4,9,3,18,17,24c12,5,15,9,7,9S10688,6325,10654,6308z"/>
		<linearGradient id="SVGID_24_" gradientUnits="userSpaceOnUse" x1="1980.6144" y1="5762.335" x2="1912.3728" y2="5762.335">
			<stop  offset="0" style="stop-color:#FFFFFF"/>
			<stop  offset="0.1145" style="stop-color:#DBDADA"/>
			<stop  offset="0.2765" style="stop-color:#7B7879"/>
			<stop  offset="0.9944" style="stop-color:#000000"/>
		</linearGradient>
		<linearGradient id="SVGID_25_" gradientUnits="userSpaceOnUse" x1="1985.6144" y1="5762.335" x2="1916.3728" y2="5762.335">
			<stop  offset="0" style="stop-color:#FFFFFF"/>
			<stop  offset="1" style="stop-color:#000000"/>
		</linearGradient>
		<path class="st14" d="M1412,6295c-32.9-15.2-103.2-57.6-111-93c-28.5-129.9,168.9-361.4,227-481c55.5-114.4,127.6-375.8,227-455
			c19.1-15.2,71.1-18,95-23c26.3-5.5,89.7-40.4,106-19c125.7,164.6-266.2,561.4-356,748c-35.7,74.2-135.5,214.2-144,296
			c-1,9.2,15.3,29.2,9,36C1455.9,6313.9,1424.2,6300.6,1412,6295z"/>
		<linearGradient id="SVGID_26_" gradientUnits="userSpaceOnUse" x1="8911.167" y1="5836.7603" x2="8855.6504" y2="5836.7603">
			<stop  offset="0" style="stop-color:#FFFFFF"/>
			<stop  offset="0.1145" style="stop-color:#DBDADA"/>
			<stop  offset="0.2765" style="stop-color:#7B7879"/>
			<stop  offset="0.9944" style="stop-color:#000000"/>
		</linearGradient>
		<linearGradient id="SVGID_27_" gradientUnits="userSpaceOnUse" x1="8916.167" y1="5836.7603" x2="8859.5684" y2="5836.7603">
			<stop  offset="0" style="stop-color:#FFFFFF"/>
			<stop  offset="1" style="stop-color:#000000"/>
		</linearGradient>
		<path class="st15" d="M8485,5978c-38-17-75-34-80-38c-6-5-19-34-29-65l-20-56l25-23c30-30,369-140,400-131c39,13,156,86,125,79
			c-22-5-27-4-21,6c5,8,4,11-3,6c-6-3-34,2-64,13c-29,10-160,33-218,51s-53,40-62,48c-23,20-23,59,1,105c10,20,18,37,17,36
			C8556,6009,8524,5995,8485,5978z"/>
		<linearGradient id="SVGID_28_" gradientUnits="userSpaceOnUse" x1="10470.6943" y1="5457.6812" x2="10406.0254" y2="5457.6812">
			<stop  offset="0" style="stop-color:#FFFFFF"/>
			<stop  offset="0.1145" style="stop-color:#DBDADA"/>
			<stop  offset="0.2765" style="stop-color:#7B7879"/>
			<stop  offset="0.9944" style="stop-color:#000000"/>
		</linearGradient>
		<linearGradient id="SVGID_29_" gradientUnits="userSpaceOnUse" x1="10475.6943" y1="5457.6812" x2="10409.9971" y2="5457.6812">
			<stop  offset="0" style="stop-color:#FFFFFF"/>
			<stop  offset="1" style="stop-color:#000000"/>
		</linearGradient>
		<path class="st16" d="M9931,5928c-8-13-35-59-61-103l-46-80l21-100c76-353,108-492,118-503c6-8,87-52,181-99c191-96,194-96,286-38
			c41,26,49,35,33,35c-12,0-28,6-35,13c-7,6-56,32-108,57s-119,59-149,75l-55,30c0,0-9.5,65.4-19,85c-16.1,33.4-82,101-87,120
			c-10,36,5,233-28,380c-11,47-23,94-27,105l-8,20l17-20c16-19,16-18,1,13c-8,17-17,32-18,32S9938,5940,9931,5928z"/>
		<linearGradient id="SVGID_30_" gradientUnits="userSpaceOnUse" x1="3377.0286" y1="5697.5" x2="3352.7439" y2="5697.5">
			<stop  offset="0" style="stop-color:#FFFFFF"/>
			<stop  offset="0.1145" style="stop-color:#DBDADA"/>
			<stop  offset="0.2765" style="stop-color:#7B7879"/>
			<stop  offset="0.9944" style="stop-color:#000000"/>
		</linearGradient>
		<linearGradient id="SVGID_31_" gradientUnits="userSpaceOnUse" x1="3382.0286" y1="5714.5552" x2="3356.7439" y2="5714.5552">
			<stop  offset="0" style="stop-color:#FFFFFF"/>
			<stop  offset="1" style="stop-color:#000000"/>
		</linearGradient>
		<path class="st17" d="M3174,5785c20-138,20-144-14-175c-18-17-29-30-25-30c11,0,245,103,242,106c-1,2-35.1-9.8-47-12
			c-41.9-7.6-142-9-166,38c-9,18,40,35,36,38s-12,19-18,35l-12,30L3174,5785z"/>
		<linearGradient id="SVGID_32_" gradientUnits="userSpaceOnUse" x1="11610.7559" y1="4774.5" x2="11498.4814" y2="4774.5">
			<stop  offset="0" style="stop-color:#FFFFFF"/>
			<stop  offset="0.1145" style="stop-color:#DBDADA"/>
			<stop  offset="0.2765" style="stop-color:#7B7879"/>
			<stop  offset="0.9944" style="stop-color:#000000"/>
		</linearGradient>
		<linearGradient id="SVGID_33_" gradientUnits="userSpaceOnUse" x1="11615.7559" y1="4774.5" x2="11502.4814" y2="4774.5">
			<stop  offset="0" style="stop-color:#FFFFFF"/>
			<stop  offset="1" style="stop-color:#000000"/>
		</linearGradient>
		<path class="st18" d="M11498,5697c-59-28-114-73-268-217c-9-8-63-58-120-110c-58-52-134-121-170-155c-78-72-230-210-357-325
			c-119-107-121-118-35-199c55-52,239-232,683-669c167-164,211-202,233-202c15,0,57,14,92,32c63,32,64,32,41,47c-13,9-37,30-54,46
			c-16,17-204,201-418,410c-466,456-482,472-488,496c-3,12-1,17,5,13s9-1,6,7s21.5,33.1,31,42c38.4,35.9,90,79,156,141
			s145,135,175,161c30,27,64,58,76,69c17,18,78,74,246,226c15,14,60,55,100,91c40,37,89,81,108,98s33,30,30,30
			S11535,5715,11498,5697z"/>
		<linearGradient id="SVGID_34_" gradientUnits="userSpaceOnUse" x1="942.5193" y1="4910.5791" x2="936.5255" y2="4910.5791">
			<stop  offset="0" style="stop-color:#FFFFFF"/>
			<stop  offset="0.1145" style="stop-color:#DBDADA"/>
			<stop  offset="0.2765" style="stop-color:#7B7879"/>
			<stop  offset="0.9944" style="stop-color:#000000"/>
		</linearGradient>
		<linearGradient id="SVGID_35_" gradientUnits="userSpaceOnUse" x1="947.5193" y1="4910.5791" x2="940.5255" y2="4910.5791">
			<stop  offset="0" style="stop-color:#FFFFFF"/>
			<stop  offset="1" style="stop-color:#000000"/>
		</linearGradient>
		<path class="st19" d="M884,4918c10-49,22-54,50-22c26,31-14.6,44.5-28,48C897.8,4946.1,877,4950,884,4918z"/>
		<linearGradient id="SVGID_36_" gradientUnits="userSpaceOnUse" x1="2720" y1="5395.4858" x2="2699.323" y2="5395.4858">
			<stop  offset="0" style="stop-color:#FFFFFF"/>
			<stop  offset="0.1145" style="stop-color:#DBDADA"/>
			<stop  offset="0.2765" style="stop-color:#7B7879"/>
			<stop  offset="0.9944" style="stop-color:#000000"/>
		</linearGradient>
		<linearGradient id="SVGID_37_" gradientUnits="userSpaceOnUse" x1="2725" y1="5395.4858" x2="2703.323" y2="5395.4858">
			<stop  offset="0" style="stop-color:#FFFFFF"/>
			<stop  offset="1" style="stop-color:#000000"/>
		</linearGradient>
		<path class="st20" d="M2532,5473c34-66,39-87,28-114c-7-16-21-31-32-35c-11-3-17-8-14-12c5-5,206,76,206,83c0,2-11,2-25,1
			c-14,0-18.9-7.3-25-10c-5.5-2.5-10-1-22,10c-19,16-20,16-9,1c12-15,12-17,0-11c-8,3-30,25-49,49s-41,44-48,44
			C2534,5480,2530,5477,2532,5473z"/>
		<linearGradient id="SVGID_38_" gradientUnits="userSpaceOnUse" x1="669.6096" y1="4595.1499" x2="603.6486" y2="4595.1499">
			<stop  offset="0" style="stop-color:#FFFFFF"/>
			<stop  offset="0.1145" style="stop-color:#DBDADA"/>
			<stop  offset="0.2765" style="stop-color:#7B7879"/>
			<stop  offset="0.9944" style="stop-color:#000000"/>
		</linearGradient>
		<linearGradient id="SVGID_39_" gradientUnits="userSpaceOnUse" x1="674.6096" y1="4595.1499" x2="607.6486" y2="4595.1499">
			<stop  offset="0" style="stop-color:#FFFFFF"/>
			<stop  offset="1" style="stop-color:#000000"/>
		</linearGradient>
		<path class="st21" d="M348,5427c-68-31-338-290-338-324c0-22,102-321,299-883c32-91,80-228,106-305c27-77,55-148,63-157
			c23-27,70-21,139,16c61,32,62,33,38,44c-26,12-38,35-75,147c-12,39-26,79-31,90c-4,11-40.5,116.2-54,155c-13.5,38.8-50,144-55,155
			c-4,11-22,63-40,115c-26,76-106,306-133,380c-3,8-29,83-58,167c-31,85-58,149-64,146c-5-3,11,15,37,41c26,25,44,46,42,46
			c-3,0,14,17,38,38c57,50,153,152,142,151C399,5449,374,5439,348,5427z"/>
		<linearGradient id="SVGID_40_" gradientUnits="userSpaceOnUse" x1="12020.8857" y1="4580.7695" x2="11959.3975" y2="4580.7695">
			<stop  offset="0" style="stop-color:#FFFFFF"/>
			<stop  offset="0.1145" style="stop-color:#DBDADA"/>
			<stop  offset="0.2765" style="stop-color:#7B7879"/>
			<stop  offset="0.9944" style="stop-color:#000000"/>
		</linearGradient>
		<linearGradient id="SVGID_41_" gradientUnits="userSpaceOnUse" x1="12025.8857" y1="4580.7695" x2="11963.165" y2="4580.7695">
			<stop  offset="0" style="stop-color:#FFFFFF"/>
			<stop  offset="1" style="stop-color:#000000"/>
		</linearGradient>
		<path class="st22" d="M11433,4846l-27-24l268-263c148-145,271-265,275-266c3-2,24,9,46,23s32,23,22,20c-19-6-39,10-154,122
			c-35,34-121,62-117,62s50,13,30,29s-52,46-70,66c-23,25-28.8,28-39,23c-1.9-0.9-6-6-6,6c-1,11-19,36-40,57c-22,20-37,40-34,43
			c4,3,1,6-5,6c-16,0-72,54-72,70c0,7-7,10-15,6c-9-3-15,0-15,10c0,9-5,12-12,8c-8-5-9-2-5,9C11472,4876,11466,4874,11433,4846z"/>
		<linearGradient id="SVGID_42_" gradientUnits="userSpaceOnUse" x1="1631" y1="4731.3086" x2="1598.1874" y2="4731.3086">
			<stop  offset="0" style="stop-color:#FFFFFF"/>
			<stop  offset="0.1145" style="stop-color:#DBDADA"/>
			<stop  offset="0.2765" style="stop-color:#7B7879"/>
			<stop  offset="0.9944" style="stop-color:#000000"/>
		</linearGradient>
		<linearGradient id="SVGID_43_" gradientUnits="userSpaceOnUse" x1="1644.1542" y1="4731.3086" x2="1609.5261" y2="4731.3086">
			<stop  offset="0" style="stop-color:#FFFFFF"/>
			<stop  offset="1" style="stop-color:#000000"/>
		</linearGradient>
		<path class="st23" d="M1352,4764c-29-26-51-48-49-50c2-3,44-16,93-29c0,0,65.3-26.2,88-24c20.6,2,74,37,74,37l73,37l-88,28
			c-48,15-92,25-98,23c-5-2-17,3-25,10C1406,4808,1397,4803,1352,4764z"/>
		<linearGradient id="SVGID_44_" gradientUnits="userSpaceOnUse" x1="12420.0176" y1="4615.3564" x2="12413.708" y2="4615.3564">
			<stop  offset="0" style="stop-color:#FFFFFF"/>
			<stop  offset="0.1145" style="stop-color:#DBDADA"/>
			<stop  offset="0.2765" style="stop-color:#7B7879"/>
			<stop  offset="0.9944" style="stop-color:#000000"/>
		</linearGradient>
		<linearGradient id="SVGID_45_" gradientUnits="userSpaceOnUse" x1="12425.0176" y1="4615.3564" x2="12417.708" y2="4615.3564">
			<stop  offset="0" style="stop-color:#FFFFFF"/>
			<stop  offset="1" style="stop-color:#000000"/>
		</linearGradient>
		<path class="st24" d="M12391,4618c-1-21,29.8-14.4,29-7c-1.8,15.5-47,10-62,6c-9-3,41-1,38,6C12394,4630,12391,4627,12391,4618z"
			/>
	</g>
	<path class="st25" d="M2610,3402v-239l443-6c243-4,525-7,628-7h185l23,73c12,39,47,147,77,240c30,92,54,170,54,172c0,3-317,5-705,5
		h-705V3402z"/>
	<path class="st26" d="M4619,3088.5c-4-3-7-69-7-145v-138h350h350v145v145h-343C4780,3095.5,4622,3092.5,4619,3088.5z"/>
	<path d="M5460,2960v-140h350h350v140v140h-350h-350V2960z"/>
	<path class="st27" d="M2601,2891c-14-78-9-75-128-87l-73-7l-2-301l-3-301l-270-12c-148-6-282-12-296-12c-26-1-26-1-38-128
		c-21-239-13-387,35-603c56-249,134-450,193-497c29-23,216-91,321-117c141-34,328-63,540-84c222-21,1069-24,1375-4
		c504,33,1061,87,1500,146c404,55,530,74,905,137c1209,204,2512,253,3415,128c83-11,169-23,191-26l42-5l42,73c57,98,140,216,238,338
		c160,200,475,544,666,730c48,46,85,86,83,88s-67,10-143,18c-247,26-996,18-1374-15c-213-19-499-50-645-71c-330-47-822-142-1050-202
		l-50-13l-7-85c-4-46-11-178-14-293l-6-209l-637,6c-350,4-1159,7-1798,7H4450v305c0,246-3,305-13,305c-22,0-350,49-353,53
		c-6,6-34,493-34,583v81l-87,23c-71,18-96,30-128,60l-40,38l-545,11c-300,6-566,11-591,11h-46L2601,2891z"/>
	<path class="st28" d="M8825,1034c-27-2-171-11-320-19c-148-9-281-18-295-20c-14-3-81-9-150-15c-276-24-744-80-1170-140
		c-80-11-176-25-215-30c-38-5-146-21-240-35C5163,584,4489,520,3764,520c-764,0-1409,88-1972,269c-68,21-122,38-120,36
		c44-43,382-242,553-325C3318-31,4580-130,6306,180c230,41,647,126,909,185c88,20,187,42,220,50c33,7,133,29,223,49
		c496,110,734,159,1022,210c889,159,1630,162,2294,11c60-14,119-27,130-30c44-12-18,25-139,84c-294,144-655,230-1150,277
		C9656,1031,8955,1044,8825,1034z"/>
</g>
<rect x="545" y="446" class="st29" width="72" height="31.5"/>
<line class="st30" x1="606" y1="472.7" x2="606" y2="451.3"/>
<line class="st30" x1="590.5" y1="472.7" x2="590.4" y2="451.3"/>
<line class="st30" x1="575" y1="472.8" x2="574.9" y2="451.4"/>
<line class="st30" x1="559.4" y1="472.8" x2="559.3" y2="451.4"/>
<line class="st30" x1="602.1" y1="451.3" x2="606.3" y2="451.3"/>
<line class="st30" x1="586.6" y1="451.3" x2="590.8" y2="451.3"/>
<line class="st30" x1="571.1" y1="451.4" x2="575.3" y2="451.4"/>
<line class="st30" x1="555.5" y1="451.4" x2="559.7" y2="451.4"/>
<path d="M630.9,461v14h35h35v-14v-14h-35h-35V461z"/>
<rect x="629.9" y="446" class="st29" width="72" height="31.5"/>
<line class="st30" x1="691" y1="472.7" x2="690.9" y2="451.3"/>
<line class="st30" x1="675.4" y1="472.7" x2="675.3" y2="451.3"/>
<line class="st30" x1="659.9" y1="472.8" x2="659.9" y2="451.4"/>
<line class="st30" x1="644.3" y1="472.8" x2="644.3" y2="451.4"/>
<line class="st30" x1="687.1" y1="451.3" x2="691.3" y2="451.3"/>
<line class="st30" x1="671.5" y1="451.3" x2="675.7" y2="451.3"/>
<line class="st30" x1="656.1" y1="451.4" x2="660.2" y2="451.4"/>
<line class="st30" x1="640.5" y1="451.4" x2="644.6" y2="451.4"/>
<path d="M715.8,461v14h35h35v-14v-14h-35h-35V461z"/>
<rect x="714.8" y="446" class="st29" width="72" height="31.5"/>
<line class="st30" x1="775.8" y1="472.7" x2="775.7" y2="451.3"/>
<line class="st30" x1="760.2" y1="472.7" x2="760.1" y2="451.3"/>
<line class="st30" x1="744.8" y1="472.8" x2="744.7" y2="451.4"/>
<line class="st30" x1="729.2" y1="472.8" x2="729.1" y2="451.4"/>
<line class="st30" x1="771.9" y1="451.3" x2="776.1" y2="451.3"/>
<line class="st30" x1="756.3" y1="451.3" x2="760.5" y2="451.3"/>
<line class="st30" x1="740.9" y1="451.4" x2="745" y2="451.4"/>
<line class="st30" x1="725.3" y1="451.4" x2="729.5" y2="451.4"/>
<rect x="460.2" y="446" class="st29" width="72" height="31.5"/>
<g>
	<line class="st30" x1="521.2" y1="472.7" x2="521.2" y2="451.3"/>
	<line class="st30" x1="505.7" y1="472.7" x2="505.6" y2="451.3"/>
	<line class="st30" x1="490.2" y1="472.8" x2="490.1" y2="451.4"/>
	<line class="st30" x1="474.6" y1="472.8" x2="474.5" y2="451.4"/>
	<line class="st30" x1="517.4" y1="451.3" x2="521.5" y2="451.3"/>
	<line class="st30" x1="501.8" y1="451.3" x2="505.9" y2="451.3"/>
	<line class="st30" x1="486.3" y1="451.4" x2="490.5" y2="451.4"/>
	<line class="st30" x1="470.7" y1="451.4" x2="474.9" y2="451.4"/>
</g>
<path class="st26" d="M461.9,568.9c-0.4,0.3-0.7,6.9-0.7,14.5v13.8h35h35v-14.5v-14.5h-34.3C478,568.2,462.2,568.5,461.9,568.9z"/>
<rect x="460.2" y="566.7" class="st29" width="72" height="31.5"/>
<g>
	<line class="st30" x1="521.2" y1="593.5" x2="521.2" y2="572.1"/>
	<line class="st30" x1="505.7" y1="593.5" x2="505.6" y2="572.1"/>
	<line class="st30" x1="490.2" y1="593.6" x2="490.1" y2="572.2"/>
	<line class="st30" x1="474.6" y1="593.6" x2="474.5" y2="572.2"/>
	<line class="st30" x1="517.4" y1="572.1" x2="521.5" y2="572.1"/>
	<line class="st30" x1="501.8" y1="572.1" x2="505.9" y2="572.1"/>
	<line class="st30" x1="486.3" y1="572.2" x2="490.5" y2="572.2"/>
	<line class="st30" x1="470.7" y1="572.2" x2="474.9" y2="572.2"/>
</g>
<path class="st26" d="M546.7,569.3c-0.4,0.3-0.7,6.9-0.7,14.5v13.8h35h35v-14.5v-14.5h-34.3C562.8,568.6,547,568.9,546.7,569.3z"/>
<rect x="545" y="567.2" class="st29" width="72" height="31.5"/>
<g>
	<line class="st30" x1="606.1" y1="593.9" x2="606" y2="572.5"/>
	<line class="st30" x1="590.5" y1="593.9" x2="590.4" y2="572.5"/>
	<line class="st30" x1="575" y1="594" x2="574.9" y2="572.6"/>
	<line class="st30" x1="559.4" y1="594" x2="559.3" y2="572.6"/>
	<line class="st30" x1="602.2" y1="572.5" x2="606.4" y2="572.5"/>
	<line class="st30" x1="586.6" y1="572.5" x2="590.8" y2="572.5"/>
	<line class="st30" x1="571.2" y1="572.6" x2="575.3" y2="572.6"/>
	<line class="st30" x1="555.6" y1="572.6" x2="559.7" y2="572.6"/>
</g>
<path class="st26" d="M631.7,568.9c-0.4,0.3-0.7,6.9-0.7,14.5v13.8h35h35v-14.5v-14.5h-34.3C647.8,568.2,632,568.5,631.7,568.9z"/>
<rect x="630" y="566.7" class="st29" width="72" height="31.5"/>
<g>
	<line class="st30" x1="691" y1="593.5" x2="690.9" y2="572.1"/>
	<line class="st30" x1="675.4" y1="593.5" x2="675.4" y2="572.1"/>
	<line class="st30" x1="660" y1="593.6" x2="659.9" y2="572.2"/>
	<line class="st30" x1="644.4" y1="593.6" x2="644.3" y2="572.2"/>
	<line class="st30" x1="687.1" y1="572.1" x2="691.3" y2="572.1"/>
	<line class="st30" x1="671.5" y1="572.1" x2="675.7" y2="572.1"/>
	<line class="st30" x1="656.1" y1="572.2" x2="660.3" y2="572.2"/>
	<line class="st30" x1="640.5" y1="572.2" x2="644.7" y2="572.2"/>
</g>
<path class="st26" d="M716.5,568.9c-0.4,0.3-0.7,6.9-0.7,14.5v13.8h35h35v-14.5v-14.5h-34.3C732.6,568.2,716.8,568.5,716.5,568.9z"
	/>
<rect x="714.8" y="566.7" class="st29" width="72" height="31.5"/>
<g>
	<line class="st30" x1="775.8" y1="593.5" x2="775.7" y2="572.1"/>
	<line class="st30" x1="760.2" y1="593.5" x2="760.1" y2="572.1"/>
	<line class="st30" x1="744.8" y1="593.6" x2="744.7" y2="572.2"/>
	<line class="st30" x1="729.2" y1="593.6" x2="729.1" y2="572.2"/>
	<line class="st30" x1="771.9" y1="572.1" x2="776.1" y2="572.1"/>
	<line class="st30" x1="756.3" y1="572.1" x2="760.5" y2="572.1"/>
	<line class="st30" x1="740.9" y1="572.2" x2="745.1" y2="572.2"/>
	<line class="st30" x1="725.3" y1="572.2" x2="729.5" y2="572.2"/>
</g>
<path class="st26" d="M461.9,488.3c-0.4,0.3-0.7,6.9-0.7,14.5v13.8h35h35v-14.5v-14.5h-34.3C478,487.6,462.2,487.9,461.9,488.3z"/>
<rect x="460.2" y="486.1" class="st31" width="72" height="31.5"/>
<g>
	<line class="st30" x1="521.2" y1="512.8" x2="521.2" y2="491.4"/>
	<line class="st30" x1="505.7" y1="512.8" x2="505.6" y2="491.4"/>
	<line class="st30" x1="490.2" y1="512.9" x2="490.1" y2="491.5"/>
	<line class="st30" x1="474.6" y1="512.9" x2="474.5" y2="491.5"/>
	<line class="st30" x1="517.4" y1="491.4" x2="521.5" y2="491.4"/>
	<line class="st30" x1="501.8" y1="491.5" x2="505.9" y2="491.4"/>
	<line class="st30" x1="486.3" y1="491.5" x2="490.5" y2="491.5"/>
	<line class="st30" x1="470.7" y1="491.5" x2="474.9" y2="491.5"/>
</g>
<path class="st26" d="M461.9,528.6c-0.4,0.3-0.7,6.9-0.7,14.5v13.8h35h35v-14.5v-14.5h-34.3C478,527.9,462.2,528.2,461.9,528.6z"/>
<rect x="460.2" y="526.5" class="st31" width="72" height="31.5"/>
<g>
	<line class="st30" x1="521.2" y1="553.2" x2="521.2" y2="531.8"/>
	<line class="st30" x1="505.7" y1="553.2" x2="505.6" y2="531.8"/>
	<line class="st30" x1="490.2" y1="553.2" x2="490.1" y2="531.8"/>
	<line class="st30" x1="474.6" y1="553.3" x2="474.5" y2="531.9"/>
	<line class="st30" x1="517.4" y1="531.8" x2="521.5" y2="531.8"/>
	<line class="st30" x1="501.8" y1="531.8" x2="505.9" y2="531.8"/>
	<line class="st30" x1="486.3" y1="531.9" x2="490.5" y2="531.8"/>
	<line class="st30" x1="470.7" y1="531.8" x2="474.9" y2="531.9"/>
</g>
<path class="st26" d="M546.7,528.6c-0.4,0.3-0.7,6.9-0.7,14.5v13.8h35h35v-14.5v-14.5h-34.3C562.8,527.9,547,528.2,546.7,528.6z"/>
<rect x="545" y="526.5" class="st31" width="72" height="31.5"/>
<g>
	<line class="st30" x1="606.1" y1="553.2" x2="606" y2="531.8"/>
	<line class="st30" x1="590.5" y1="553.2" x2="590.4" y2="531.8"/>
	<line class="st30" x1="575" y1="553.2" x2="574.9" y2="531.8"/>
	<line class="st30" x1="559.4" y1="553.3" x2="559.3" y2="531.9"/>
	<line class="st30" x1="602.2" y1="531.8" x2="606.3" y2="531.8"/>
	<line class="st30" x1="586.6" y1="531.8" x2="590.8" y2="531.8"/>
	<line class="st30" x1="571.1" y1="531.9" x2="575.3" y2="531.8"/>
	<line class="st30" x1="555.5" y1="531.8" x2="559.7" y2="531.9"/>
</g>
<path class="st26" d="M631.7,528.6c-0.4,0.3-0.7,6.9-0.7,14.5v13.8h35h35v-14.5v-14.5h-34.3C647.8,527.9,632,528.2,631.7,528.6z"/>
<rect x="629.9" y="526.5" class="st31" width="72" height="31.5"/>
<g>
	<line class="st30" x1="691" y1="553.2" x2="690.9" y2="531.8"/>
	<line class="st30" x1="675.4" y1="553.2" x2="675.3" y2="531.8"/>
	<line class="st30" x1="660" y1="553.2" x2="659.9" y2="531.8"/>
	<line class="st30" x1="644.4" y1="553.3" x2="644.3" y2="531.9"/>
	<line class="st30" x1="687.1" y1="531.8" x2="691.3" y2="531.8"/>
	<line class="st30" x1="671.5" y1="531.8" x2="675.7" y2="531.8"/>
	<line class="st30" x1="656.1" y1="531.9" x2="660.2" y2="531.8"/>
	<line class="st30" x1="640.5" y1="531.8" x2="644.7" y2="531.9"/>
</g>
<path class="st26" d="M716.5,528.6c-0.4,0.3-0.7,6.9-0.7,14.5v13.8h35h35v-14.5v-14.5h-34.3C732.6,527.9,716.8,528.2,716.5,528.6z"
	/>
<rect x="714.8" y="526.5" class="st31" width="72" height="31.5"/>
<g>
	<line class="st30" x1="775.8" y1="553.2" x2="775.7" y2="531.8"/>
	<line class="st30" x1="760.2" y1="553.2" x2="760.1" y2="531.8"/>
	<line class="st30" x1="744.8" y1="553.2" x2="744.7" y2="531.8"/>
	<line class="st30" x1="729.2" y1="553.3" x2="729.1" y2="531.9"/>
	<line class="st30" x1="771.9" y1="531.8" x2="776.1" y2="531.8"/>
	<line class="st30" x1="756.3" y1="531.8" x2="760.5" y2="531.8"/>
	<line class="st30" x1="740.9" y1="531.9" x2="745.1" y2="531.8"/>
	<line class="st30" x1="725.3" y1="531.8" x2="729.5" y2="531.9"/>
</g>
<path class="st26" d="M546.7,488.3c-0.4,0.3-0.7,6.9-0.7,14.5v13.8h35h35v-14.5v-14.5h-34.3C562.8,487.6,547,487.9,546.7,488.3z"/>
<rect x="545" y="486.1" class="st31" width="72" height="31.5"/>
<g>
	<line class="st30" x1="606.1" y1="512.8" x2="606" y2="491.4"/>
	<line class="st30" x1="590.5" y1="512.8" x2="590.4" y2="491.4"/>
	<line class="st30" x1="575" y1="512.9" x2="574.9" y2="491.5"/>
	<line class="st30" x1="559.4" y1="512.9" x2="559.3" y2="491.5"/>
	<line class="st30" x1="602.2" y1="491.4" x2="606.3" y2="491.4"/>
	<line class="st30" x1="586.6" y1="491.5" x2="590.8" y2="491.4"/>
	<line class="st30" x1="571.1" y1="491.5" x2="575.3" y2="491.5"/>
	<line class="st30" x1="555.5" y1="491.5" x2="559.7" y2="491.5"/>
</g>
<path class="st26" d="M631.7,488.3c-0.4,0.3-0.7,6.9-0.7,14.5v13.8h35h35v-14.5v-14.5h-34.3C647.8,487.6,632,487.9,631.7,488.3z"/>
<rect x="629.9" y="486.1" class="st31" width="72" height="31.5"/>
<g>
	<line class="st30" x1="691" y1="512.8" x2="690.9" y2="491.4"/>
	<line class="st30" x1="675.4" y1="512.8" x2="675.3" y2="491.4"/>
	<line class="st30" x1="660" y1="512.9" x2="659.9" y2="491.5"/>
	<line class="st30" x1="644.4" y1="512.9" x2="644.3" y2="491.5"/>
	<line class="st30" x1="687.1" y1="491.4" x2="691.3" y2="491.4"/>
	<line class="st30" x1="671.5" y1="491.5" x2="675.7" y2="491.4"/>
	<line class="st30" x1="656.1" y1="491.5" x2="660.2" y2="491.5"/>
	<line class="st30" x1="640.5" y1="491.5" x2="644.7" y2="491.5"/>
</g>
<path class="st26" d="M716.5,488.6c-0.4,0.3-0.7,6.9-0.7,14.5v13.8h35h35v-14.5v-14.5h-34.3C732.6,487.9,716.8,488.2,716.5,488.6z"
	/>
<rect x="714.8" y="486.1" class="st31" width="72" height="31.5"/>
<g>
	<line class="st30" x1="775.8" y1="513.2" x2="775.7" y2="491.8"/>
	<line class="st30" x1="760.2" y1="513.2" x2="760.1" y2="491.8"/>
	<line class="st30" x1="744.8" y1="513.2" x2="744.7" y2="491.9"/>
	<line class="st30" x1="729.2" y1="513.3" x2="729.1" y2="491.9"/>
	<line class="st30" x1="771.9" y1="491.8" x2="776.1" y2="491.8"/>
	<line class="st30" x1="756.3" y1="491.8" x2="760.5" y2="491.8"/>
	<line class="st30" x1="740.9" y1="491.9" x2="745.1" y2="491.9"/>
	<line class="st30" x1="725.3" y1="491.9" x2="729.5" y2="491.9"/>
</g>
<g>
	<line class="st30" x1="691" y1="512.8" x2="690.9" y2="491.4"/>
	<line class="st30" x1="675.4" y1="512.8" x2="675.3" y2="491.4"/>
	<line class="st30" x1="660" y1="512.9" x2="659.9" y2="491.5"/>
	<line class="st30" x1="644.4" y1="512.9" x2="644.3" y2="491.5"/>
	<line class="st30" x1="687.1" y1="491.4" x2="691.3" y2="491.4"/>
	<line class="st30" x1="671.5" y1="491.5" x2="675.7" y2="491.4"/>
	<line class="st30" x1="656.1" y1="491.5" x2="660.2" y2="491.5"/>
	<line class="st30" x1="640.5" y1="491.5" x2="644.7" y2="491.5"/>
</g>
</svg>
